<svg width="24" height="24" viewBox="0 0 24 24" fill="none" xmlns="http://www.w3.org/2000/svg">
<path d="M12 2L13.2531 2.48213L14.5882 2.34074L15.6738 3.13076L17 3.33975L17.8441 4.38381L19.0711 4.92893L19.6162 6.15589L20.6603 7L20.8692 8.32624L21.6593 9.41181L21.5179 10.7469L22 12L21.5179 13.2531L21.6593 14.5882L20.8692 15.6738L20.6603 17L19.6162 17.8441L19.0711 19.0711L17.8441 19.6162L17 20.6603L15.6738 20.8692L14.5882 21.6593L13.2531 21.5179L12 22L10.7469 21.5179L9.41181 21.6593L8.32624 20.8692L7 20.6603L6.15589 19.6162L4.92893 19.0711L4.38381 17.8441L3.33975 17L3.13076 15.6738L2.34074 14.5882L2.48213 13.2531L2 12L2.48213 10.7469L2.34074 9.41181L3.13076 8.32624L3.33975 7L4.38381 6.15589L4.92893 4.92893L6.15589 4.38381L7 3.33975L8.32624 3.13076L9.41181 2.34074L10.7469 2.48213L12 2Z" fill="#AA181A"/>
<path d="M7.79799 16.6771C10.582 16.0849 12.2401 16.0508 15.4191 16.6771C13.1407 16.8 10.3548 17.0239 7.79799 16.6771ZM9.35756 8.88119C10.8366 7.00978 13.5641 6.83458 15.6281 7.46713C16.2623 7.66137 17.016 8.05544 17.3214 8.7142C19.2583 12.892 8.67566 12.8601 6.51479 12.6419C8.91972 13.1972 18.0873 13.2496 18.088 9.62924C18.3257 9.76179 18.6041 9.9389 18.6398 9.96908C18.9255 10.2066 19.1686 10.5055 19.3361 10.848V10.849C19.6883 11.5694 19.6746 12.4792 19.091 13.058C18.7646 13.3821 18.3331 13.5619 17.8947 13.6458C17.5204 13.718 17.141 13.721 16.7619 13.721C16.6966 13.7209 16.0545 13.6566 15.7814 13.6107L15.5294 12.7288V14.8167C14.6563 14.5503 11.0541 14.0316 8.40639 15.0316C11.692 14.1287 14.8583 15.0332 15.5294 15.2484V16.4242C14.5775 16.1341 11.1406 15.2551 7.72085 16.4163V14.0316C6.96717 13.9542 5.40026 13.6299 4.92983 13.2494C4.40776 12.8281 4.03259 12.1811 3.92299 11.4896C3.87252 11.1746 3.90324 10.8335 4.06948 10.5658C4.36385 10.0883 4.95829 9.98816 5.45327 9.96322C6.08872 9.93173 6.73069 9.99009 7.36245 9.8851C7.94358 9.78794 8.40789 9.51028 8.88686 9.18881C8.78466 9.4145 8.70811 9.63135 8.65639 9.82162C8.57019 10.1497 8.67077 10.1703 8.7853 9.8685C8.90598 9.56804 9.0855 9.22229 9.35756 8.88119Z" fill="white"/>
</svg>
