<svg width="162" height="78" viewBox="0 0 162 78" fill="none" xmlns="http://www.w3.org/2000/svg">
<path d="M5.74419 29.474C5.94935 29.5653 6.17968 29.5788 6.39374 29.5122C6.6078 29.4455 6.79154 29.303 6.91193 29.1103C7.00473 28.9062 7.02492 28.6754 6.96904 28.4577C6.91315 28.24 6.78468 28.049 6.60576 27.9176C6.28534 27.7212 6.3708 27.8303 5.57331 27.6703L4.47675 27.394L3.97831 27.1176L4.47675 26.8412L5.57331 26.6012C6.39928 26.4267 6.28535 26.514 6.64137 26.3176C6.80664 26.1738 6.9222 25.9794 6.97093 25.7633C7.01966 25.5472 6.99896 25.3208 6.91193 25.1176C6.79119 24.9233 6.60334 24.7826 6.38568 24.7233C6.16801 24.664 5.93647 24.6905 5.73706 24.7976C5.38104 24.9576 5.53769 24.9576 5.02502 25.5249L4.24889 26.3685L3.72912 26.703V26.0921L4.07801 24.9721C4.36283 24.1721 4.36282 24.3321 4.36282 23.9321C4.34537 23.7088 4.24778 23.4999 4.08877 23.3455C3.92976 23.1912 3.72053 23.1022 3.50126 23.0958C3.28098 23.099 3.06997 23.1868 2.91029 23.3418C2.75061 23.4968 2.65397 23.7076 2.63967 23.9321C2.63967 24.3321 2.63967 24.1721 2.91025 24.9721L3.26627 26.0921V26.703L2.7536 26.3685L2.00596 25.5249C1.45057 24.8485 1.57162 24.9358 1.25832 24.7467C1.05499 24.6525 0.825312 24.6359 0.611035 24.7C0.396758 24.764 0.212087 24.9045 0.0905616 25.0958C-0.00413102 25.3007 -0.0253494 25.5332 0.030609 25.7525C0.0865673 25.9718 0.216144 26.1641 0.396735 26.2958C0.702914 26.4921 0.581883 26.4121 1.41497 26.5285L2.51863 26.8194L2.98858 27.0958L2.51863 27.3721L1.41497 27.6194C0.589004 27.7721 0.702923 27.6994 0.361142 27.8958C0.19353 28.0362 0.0761157 28.2294 0.0271756 28.4451C-0.0217644 28.6609 0.000514273 28.8871 0.0905616 29.0885C0.209017 29.2853 0.396394 29.4287 0.61462 29.4895C0.832846 29.5503 1.06554 29.5239 1.26543 29.4158C1.62145 29.2631 1.45056 29.3358 1.97747 28.6521L2.7536 27.8085L3.26627 27.5321V28.0994L2.91025 29.2121C2.63967 30.0267 2.63967 29.8521 2.63967 30.2521C2.65225 30.478 2.74813 30.6905 2.90799 30.8471C3.06785 31.0036 3.27983 31.0925 3.50126 31.0958C3.72167 31.0891 3.93183 30.9992 4.09101 30.8433C4.25018 30.6875 4.34704 30.4768 4.36282 30.2521C4.36282 29.8521 4.32011 29.9758 4.07801 29.2121L3.72912 28.0994V27.5321L4.24889 27.8085L4.99655 28.6521C5.54483 29.3358 5.42377 29.2631 5.74419 29.4521" fill="white"/>
<path d="M25.1018 27.5741H25.1524V24.7689H29.4853V43.5979C29.4853 46.4248 27.8387 48.1916 25.2462 48.1916C22.6537 48.1916 21 46.4248 21 43.5979V10.6562C21 7.84374 22.6537 6.06973 25.2462 6.06973C27.8387 6.06973 29.4853 7.84374 29.4853 10.6562V19.9084H26.5461V12.8412C26.5461 9.54563 26.38 8.8966 25.2535 8.8966C24.1269 8.8966 23.9536 9.54563 23.9536 12.8412V41.3984C23.9536 44.694 24.1413 45.343 25.2535 45.343C26.3656 45.343 26.5461 44.694 26.5461 41.3984V27.5741H25.1524V27.5958L25.1018 27.5741Z" fill="white"/>
<path d="M56.949 0.296539H48.4854V3.30369H56.949V0.296539Z" fill="white"/>
<path fill-rule="evenodd" clip-rule="evenodd" d="M56.9706 10.5079C56.9706 7.69544 55.3169 5.92144 52.7244 5.92144C50.1319 5.92144 48.4854 7.69544 48.4854 10.5079V43.4496C48.4854 46.2764 50.1319 48.0433 52.7244 48.0433C55.3169 48.0433 56.9706 46.2764 56.9706 43.4496V10.5079ZM51.4372 12.5076C51.4381 12.7505 51.4389 13.0068 51.4389 13.2771V40.6804C51.4389 40.9619 51.4379 41.2284 51.437 41.4804C51.4268 44.1721 51.4229 45.2092 52.7172 45.2092C54.0286 45.2092 54.0257 44.1505 54.0182 41.3736C54.0177 41.1535 54.017 40.9225 54.017 40.6804V13.2771C54.017 13.0481 54.0176 12.8292 54.0181 12.6199C54.0248 9.82294 54.0273 8.75551 52.7172 8.75551C51.4244 8.75551 51.428 9.78863 51.4372 12.5076Z" fill="white"/>
<path d="M84.5063 10.6562V18.1344V18.1416H81.5599V12.8412C81.5599 9.54563 81.3722 8.90382 80.26 8.90382C79.1479 8.90382 78.9674 9.54563 78.9674 12.8412V14.608C78.9674 25.6631 84.4485 25.9588 84.4485 36.5956V43.6051C84.3908 46.432 82.672 48.1916 80.2023 48.1916C77.7325 48.1916 75.9705 46.432 75.9705 43.6051V34.3673H78.9168V41.42C78.9168 44.7157 79.0757 45.3647 80.2023 45.3647C81.3288 45.3647 81.4949 44.7157 81.4949 41.42V36.8336C81.4949 25.9588 76.021 25.4756 76.021 15.0191V10.6562C76.021 7.84374 77.6603 6.06973 80.26 6.06973C82.8598 6.06973 84.5063 7.84374 84.5063 10.6562Z" fill="white"/>
<path d="M109.045 28.0645H106.453V48.1916H103.506V6H106.453V25.2304H109.045V6H111.977V48.1916H109.045V28.0645Z" fill="white"/>
<path d="M140.286 8.83408H137.108V48.1916H134.169V8.83408H130.977V6.00721H140.286V8.83408Z" fill="white"/>
<path d="M160.03 29.474C160.235 29.5653 160.465 29.5788 160.679 29.5122C160.893 29.4455 161.077 29.303 161.198 29.1103C161.29 28.9062 161.311 28.6754 161.255 28.4577C161.199 28.24 161.07 28.049 160.891 27.9176C160.571 27.7212 160.656 27.8303 159.859 27.6703L158.762 27.394L158.264 27.1176L158.762 26.8412L159.859 26.6012C160.685 26.4267 160.571 26.514 160.927 26.3176C161.092 26.1738 161.208 25.9794 161.257 25.7633C161.305 25.5472 161.285 25.3208 161.198 25.1176C161.077 24.9233 160.889 24.7826 160.671 24.7233C160.454 24.664 160.222 24.6905 160.023 24.7976C159.667 24.9576 159.823 24.9576 159.311 25.5249L158.535 26.3685L158.015 26.703V26.0921L158.364 24.9721C158.648 24.1721 158.648 24.3321 158.648 23.9321C158.631 23.7088 158.533 23.4999 158.374 23.3455C158.215 23.1912 158.006 23.1022 157.787 23.0958C157.567 23.099 157.356 23.1868 157.196 23.3418C157.036 23.4968 156.94 23.7076 156.925 23.9321C156.925 24.3321 156.925 24.1721 157.196 24.9721L157.552 26.0921V26.703L157.039 26.3685L156.292 25.5249C155.736 24.8485 155.857 24.9358 155.544 24.7467C155.341 24.6525 155.111 24.6359 154.897 24.7C154.682 24.764 154.498 24.9045 154.376 25.0958C154.282 25.3007 154.26 25.5332 154.316 25.7525C154.372 25.9718 154.502 26.1641 154.682 26.2958C154.989 26.4921 154.868 26.4121 155.701 26.5285L156.804 26.8194L157.274 27.0958L156.804 27.3721L155.701 27.6194C154.875 27.7721 154.989 27.6994 154.647 27.8958C154.479 28.0362 154.362 28.2294 154.313 28.4451C154.264 28.6609 154.286 28.8871 154.376 29.0885C154.495 29.2853 154.682 29.4287 154.9 29.4895C155.118 29.5503 155.351 29.5239 155.551 29.4158C155.907 29.2631 155.736 29.3358 156.263 28.6521L157.039 27.8085L157.552 27.5321V28.0994L157.196 29.2121C156.925 30.0267 156.925 29.8521 156.925 30.2521C156.938 30.478 157.034 30.6905 157.194 30.8471C157.353 31.0036 157.565 31.0925 157.787 31.0958C158.007 31.0891 158.217 30.9992 158.377 30.8433C158.536 30.6875 158.633 30.4768 158.648 30.2521C158.648 29.8521 158.606 29.9758 158.364 29.2121L158.015 28.0994V27.5321L158.535 27.8085L159.282 28.6521C159.83 29.3358 159.709 29.2631 160.03 29.4521" fill="white"/>
<path d="M22.7163 59.6446V61.2286C22.6323 61.3366 22.5063 61.4536 22.3383 61.5796C22.1763 61.6996 21.9813 61.8136 21.7533 61.9216C21.5313 62.0236 21.2883 62.1106 21.0243 62.1826C20.7663 62.2486 20.4903 62.2816 20.1963 62.2816C19.7103 62.2816 19.2663 62.2036 18.8643 62.0476C18.4623 61.8916 18.1173 61.6696 17.8293 61.3816C17.5413 61.0876 17.3193 60.7396 17.1633 60.3376C17.0073 59.9356 16.9293 59.4886 16.9293 58.9966C16.9293 58.5166 17.0103 58.0756 17.1723 57.6736C17.3403 57.2716 17.5683 56.9236 17.8563 56.6296C18.1503 56.3356 18.4893 56.1106 18.8733 55.9546C19.2633 55.7926 19.6833 55.7116 20.1333 55.7116C20.5233 55.7116 20.8623 55.7716 21.1503 55.8916C21.4443 56.0056 21.6903 56.1706 21.8883 56.3866C22.0923 56.6026 22.2483 56.8546 22.3563 57.1426L22.0233 56.9536L22.1673 55.8016H22.5723V57.6646H22.1583C22.0743 57.3706 21.9483 57.1096 21.7803 56.8816C21.6123 56.6476 21.3993 56.4646 21.1413 56.3326C20.8833 56.1946 20.5773 56.1256 20.2233 56.1256C19.9173 56.1256 19.6383 56.1916 19.3863 56.3236C19.1343 56.4556 18.9153 56.6446 18.7293 56.8906C18.5433 57.1366 18.3963 57.4366 18.2883 57.7906C18.1863 58.1446 18.1353 58.5466 18.1353 58.9966C18.1353 59.4526 18.1833 59.8606 18.2793 60.2206C18.3753 60.5746 18.5133 60.8746 18.6933 61.1206C18.8733 61.3666 19.0953 61.5556 19.3593 61.6876C19.6233 61.8136 19.9173 61.8766 20.2413 61.8766C20.4993 61.8766 20.7213 61.8466 20.9073 61.7866C21.0933 61.7266 21.2463 61.6576 21.3663 61.5796C21.4923 61.5016 21.5883 61.4296 21.6543 61.3636V59.6446C21.6543 59.5186 21.5853 59.4346 21.4473 59.3926C21.3093 59.3506 21.1383 59.3296 20.9343 59.3296H20.8623V59.0416H23.2833V59.3296H23.2293C23.1093 59.3296 22.9923 59.3506 22.8783 59.3926C22.7703 59.4346 22.7163 59.5186 22.7163 59.6446ZM28.137 59.2486L29.199 59.0776L30.495 61.5886C30.537 61.6726 30.585 61.7356 30.639 61.7776C30.693 61.8136 30.756 61.8376 30.828 61.8496C30.906 61.8556 30.996 61.8586 31.098 61.8586H31.134V62.1916H29.532L28.137 59.2486ZM27.201 61.7686C27.201 61.7866 27.219 61.8016 27.255 61.8136C27.297 61.8196 27.348 61.8286 27.408 61.8406C27.474 61.8466 27.546 61.8526 27.624 61.8586C27.702 61.8586 27.777 61.8586 27.849 61.8586H27.948V62.1916H25.338V61.8586H25.401C25.581 61.8586 25.737 61.8406 25.869 61.8046C26.001 61.7626 26.067 61.6756 26.067 61.5436V56.4496C26.067 56.3176 26.001 56.2336 25.869 56.1976C25.737 56.1556 25.581 56.1346 25.401 56.1346H25.338V55.8016H28.119C28.623 55.8016 29.049 55.8766 29.397 56.0266C29.751 56.1766 30.021 56.3836 30.207 56.6476C30.399 56.9116 30.495 57.2206 30.495 57.5746C30.495 57.9046 30.411 58.1956 30.243 58.4476C30.081 58.6936 29.844 58.8946 29.532 59.0506C29.226 59.2006 28.86 59.2966 28.434 59.3386C28.392 59.3386 28.347 59.3416 28.299 59.3476C28.251 59.3536 28.203 59.3596 28.155 59.3656C28.107 59.3656 28.059 59.3656 28.011 59.3656H26.994V58.9876H27.975C28.293 58.9876 28.548 58.9336 28.74 58.8256C28.938 58.7176 29.082 58.5586 29.172 58.3486C29.268 58.1326 29.316 57.8746 29.316 57.5746C29.316 57.2806 29.268 57.0316 29.172 56.8276C29.076 56.6236 28.932 56.4676 28.74 56.3596C28.548 56.2456 28.305 56.1886 28.011 56.1886H27.201V61.7686ZM36.1528 62.2816C35.6968 62.2816 35.2768 62.2036 34.8928 62.0476C34.5088 61.8856 34.1698 61.6606 33.8758 61.3726C33.5878 61.0846 33.3628 60.7396 33.2008 60.3376C33.0388 59.9296 32.9578 59.4826 32.9578 58.9966C32.9578 58.5106 33.0388 58.0666 33.2008 57.6646C33.3628 57.2626 33.5878 56.9176 33.8758 56.6296C34.1698 56.3356 34.5088 56.1106 34.8928 55.9546C35.2828 55.7926 35.7028 55.7116 36.1528 55.7116C36.6028 55.7116 37.0228 55.7926 37.4128 55.9546C37.8028 56.1106 38.1418 56.3356 38.4298 56.6296C38.7238 56.9176 38.9518 57.2626 39.1138 57.6646C39.2758 58.0666 39.3568 58.5106 39.3568 58.9966C39.3568 59.4826 39.2758 59.9296 39.1138 60.3376C38.9518 60.7396 38.7238 61.0846 38.4298 61.3726C38.1418 61.6606 37.8028 61.8856 37.4128 62.0476C37.0228 62.2036 36.6028 62.2816 36.1528 62.2816ZM36.1528 61.8766C36.4528 61.8766 36.7228 61.8136 36.9628 61.6876C37.2088 61.5556 37.4188 61.3666 37.5928 61.1206C37.7728 60.8746 37.9108 60.5746 38.0068 60.2206C38.1028 59.8606 38.1508 59.4526 38.1508 58.9966C38.1508 58.5406 38.1028 58.1356 38.0068 57.7816C37.9108 57.4276 37.7728 57.1276 37.5928 56.8816C37.4188 56.6296 37.2088 56.4406 36.9628 56.3146C36.7228 56.1826 36.4558 56.1166 36.1618 56.1166C35.8618 56.1166 35.5888 56.1826 35.3428 56.3146C35.1028 56.4406 34.8928 56.6296 34.7128 56.8816C34.5388 57.1276 34.4038 57.4276 34.3078 57.7816C34.2118 58.1356 34.1638 58.5406 34.1638 58.9966C34.1638 59.4526 34.2118 59.8606 34.3078 60.2206C34.4038 60.5746 34.5388 60.8746 34.7128 61.1206C34.8928 61.3666 35.1028 61.5556 35.3428 61.6876C35.5888 61.8136 35.8588 61.8766 36.1528 61.8766ZM43.264 59.9686C43.264 60.2866 43.3 60.5566 43.372 60.7786C43.45 61.0006 43.561 61.1806 43.705 61.3186C43.849 61.4566 44.02 61.5586 44.218 61.6246C44.416 61.6846 44.638 61.7146 44.884 61.7146C45.13 61.7146 45.349 61.6786 45.541 61.6066C45.739 61.5346 45.907 61.4266 46.045 61.2826C46.189 61.1326 46.297 60.9406 46.369 60.7066C46.441 60.4726 46.477 60.1936 46.477 59.8696V56.3416C46.477 56.3056 46.462 56.2756 46.432 56.2516C46.402 56.2216 46.357 56.1976 46.297 56.1796C46.243 56.1616 46.174 56.1496 46.09 56.1436C46.012 56.1376 45.925 56.1346 45.829 56.1346H45.667V55.8016H47.656V56.1346H47.557C47.449 56.1346 47.347 56.1496 47.251 56.1796C47.155 56.2096 47.077 56.2606 47.017 56.3326C46.957 56.3986 46.927 56.4916 46.927 56.6116V59.8696C46.927 60.2896 46.87 60.6526 46.756 60.9586C46.642 61.2646 46.48 61.5166 46.27 61.7146C46.06 61.9066 45.814 62.0506 45.532 62.1466C45.25 62.2366 44.947 62.2816 44.623 62.2816C44.245 62.2816 43.903 62.2336 43.597 62.1376C43.291 62.0416 43.027 61.8976 42.805 61.7056C42.589 61.5136 42.421 61.2706 42.301 60.9766C42.181 60.6766 42.121 60.3226 42.121 59.9146V56.4496C42.121 56.3176 42.055 56.2336 41.923 56.1976C41.797 56.1556 41.644 56.1346 41.464 56.1346H41.392V55.8016H43.984V56.1346H43.903C43.831 56.1346 43.756 56.1376 43.678 56.1436C43.606 56.1436 43.537 56.1496 43.471 56.1616C43.411 56.1676 43.36 56.1766 43.318 56.1886C43.282 56.1946 43.264 56.2066 43.264 56.2246V59.9686ZM51.5513 61.6786C51.5513 61.7206 51.5723 61.7536 51.6143 61.7776C51.6563 61.7956 51.7103 61.8136 51.7763 61.8316C51.8423 61.8436 51.9143 61.8526 51.9923 61.8586C52.0703 61.8586 52.1483 61.8586 52.2263 61.8586H52.4153V62.1916H49.6883V61.8586H49.7603C49.9403 61.8586 50.0933 61.8406 50.2193 61.8046C50.3513 61.7626 50.4173 61.6756 50.4173 61.5436V56.4496C50.4173 56.3176 50.3513 56.2336 50.2193 56.1976C50.0933 56.1556 49.9403 56.1346 49.7603 56.1346H49.6883V55.8016H52.4693C53.2073 55.8016 53.7863 55.9606 54.2063 56.2786C54.6263 56.5966 54.8363 57.0436 54.8363 57.6196C54.8363 58.0036 54.7373 58.3396 54.5393 58.6276C54.3413 58.9096 54.0623 59.1286 53.7023 59.2846C53.3423 59.4406 52.9163 59.5186 52.4243 59.5186H51.2723V59.1316H52.2983C52.6043 59.1316 52.8593 59.0746 53.0633 58.9606C53.2673 58.8406 53.4203 58.6696 53.5223 58.4476C53.6243 58.2256 53.6753 57.9526 53.6753 57.6286C53.6753 57.3046 53.6243 57.0376 53.5223 56.8276C53.4203 56.6176 53.2703 56.4616 53.0723 56.3596C52.8743 56.2516 52.6313 56.1976 52.3433 56.1976H51.5513V61.6786ZM63.5778 62.2816C63.1218 62.2816 62.7018 62.2036 62.3178 62.0476C61.9338 61.8856 61.5948 61.6606 61.3008 61.3726C61.0128 61.0846 60.7878 60.7396 60.6258 60.3376C60.4638 59.9296 60.3828 59.4826 60.3828 58.9966C60.3828 58.5106 60.4638 58.0666 60.6258 57.6646C60.7878 57.2626 61.0128 56.9176 61.3008 56.6296C61.5948 56.3356 61.9338 56.1106 62.3178 55.9546C62.7078 55.7926 63.1278 55.7116 63.5778 55.7116C64.0278 55.7116 64.4478 55.7926 64.8378 55.9546C65.2278 56.1106 65.5668 56.3356 65.8548 56.6296C66.1488 56.9176 66.3768 57.2626 66.5388 57.6646C66.7008 58.0666 66.7818 58.5106 66.7818 58.9966C66.7818 59.4826 66.7008 59.9296 66.5388 60.3376C66.3768 60.7396 66.1488 61.0846 65.8548 61.3726C65.5668 61.6606 65.2278 61.8856 64.8378 62.0476C64.4478 62.2036 64.0278 62.2816 63.5778 62.2816ZM63.5778 61.8766C63.8778 61.8766 64.1478 61.8136 64.3878 61.6876C64.6338 61.5556 64.8438 61.3666 65.0178 61.1206C65.1978 60.8746 65.3358 60.5746 65.4318 60.2206C65.5278 59.8606 65.5758 59.4526 65.5758 58.9966C65.5758 58.5406 65.5278 58.1356 65.4318 57.7816C65.3358 57.4276 65.1978 57.1276 65.0178 56.8816C64.8438 56.6296 64.6338 56.4406 64.3878 56.3146C64.1478 56.1826 63.8808 56.1166 63.5868 56.1166C63.2868 56.1166 63.0138 56.1826 62.7678 56.3146C62.5278 56.4406 62.3178 56.6296 62.1378 56.8816C61.9638 57.1276 61.8288 57.4276 61.7328 57.7816C61.6368 58.1356 61.5888 58.5406 61.5888 58.9966C61.5888 59.4526 61.6368 59.8606 61.7328 60.2206C61.8288 60.5746 61.9638 60.8746 62.1378 61.1206C62.3178 61.3666 62.5278 61.5556 62.7678 61.6876C63.0138 61.8136 63.2838 61.8766 63.5778 61.8766ZM70.7599 56.1976V61.5976C70.7599 61.6576 70.7809 61.7056 70.8229 61.7416C70.8709 61.7776 70.9309 61.8046 71.0029 61.8226C71.0749 61.8346 71.1529 61.8436 71.2369 61.8496C71.3209 61.8556 71.4049 61.8586 71.4889 61.8586H71.6419V62.1916H68.8969V61.8586H68.9599C69.1399 61.8586 69.2959 61.8376 69.4279 61.7956C69.5599 61.7536 69.6259 61.6666 69.6259 61.5346V56.4586C69.6259 56.3266 69.5599 56.2396 69.4279 56.1976C69.2959 56.1556 69.1399 56.1346 68.9599 56.1346H68.8969V55.8016H73.5589V57.4756H73.1899L73.0459 56.6566C73.0279 56.5366 72.9799 56.4436 72.9019 56.3776C72.8239 56.3116 72.7099 56.2666 72.5599 56.2426C72.4099 56.2126 72.2179 56.1976 71.9839 56.1976H70.7599ZM70.6159 58.7716C70.9339 58.7656 71.2189 58.7566 71.4709 58.7446C71.7289 58.7326 71.9659 58.7146 72.1819 58.6906C72.4039 58.6666 72.6229 58.6336 72.8389 58.5916V59.3116C72.6229 59.2636 72.4039 59.2276 72.1819 59.2036C71.9659 59.1736 71.7289 59.1526 71.4709 59.1406C71.2189 59.1286 70.9339 59.1196 70.6159 59.1136V58.7716ZM82.374 56.1256C82.068 56.1256 81.789 56.1916 81.537 56.3236C81.291 56.4556 81.078 56.6476 80.898 56.8996C80.724 57.1456 80.589 57.4456 80.493 57.7996C80.403 58.1536 80.358 58.5526 80.358 58.9966C80.358 59.4526 80.403 59.8576 80.493 60.2116C80.589 60.5656 80.727 60.8656 80.907 61.1116C81.087 61.3516 81.303 61.5376 81.555 61.6696C81.807 61.7956 82.092 61.8586 82.41 61.8586C82.77 61.8586 83.091 61.7806 83.373 61.6246C83.655 61.4626 83.892 61.2406 84.084 60.9586C84.282 60.6766 84.426 60.3496 84.516 59.9776L84.885 60.1216C84.783 60.5476 84.615 60.9226 84.381 61.2466C84.153 61.5706 83.862 61.8256 83.508 62.0116C83.154 62.1916 82.749 62.2816 82.293 62.2816C81.837 62.2816 81.417 62.2036 81.033 62.0476C80.655 61.8856 80.325 61.6606 80.043 61.3726C79.761 61.0786 79.542 60.7306 79.386 60.3286C79.23 59.9266 79.152 59.4826 79.152 58.9966C79.152 58.5106 79.23 58.0696 79.386 57.6736C79.548 57.2716 79.77 56.9236 80.052 56.6296C80.34 56.3356 80.673 56.1106 81.051 55.9546C81.429 55.7926 81.837 55.7116 82.275 55.7116C82.665 55.7116 83.01 55.7776 83.31 55.9096C83.61 56.0356 83.859 56.2096 84.057 56.4316C84.255 56.6536 84.399 56.9116 84.489 57.2056L84.21 57.0616L84.354 55.8016H84.768V57.7276H84.354C84.24 57.4036 84.096 57.1246 83.922 56.8906C83.754 56.6506 83.541 56.4646 83.283 56.3326C83.031 56.1946 82.728 56.1256 82.374 56.1256ZM90.1679 62.2816C89.7119 62.2816 89.2919 62.2036 88.9079 62.0476C88.5239 61.8856 88.1849 61.6606 87.8909 61.3726C87.6029 61.0846 87.3779 60.7396 87.2159 60.3376C87.0539 59.9296 86.9729 59.4826 86.9729 58.9966C86.9729 58.5106 87.0539 58.0666 87.2159 57.6646C87.3779 57.2626 87.6029 56.9176 87.8909 56.6296C88.1849 56.3356 88.5239 56.1106 88.9079 55.9546C89.2979 55.7926 89.7179 55.7116 90.1679 55.7116C90.6179 55.7116 91.0379 55.7926 91.4279 55.9546C91.8179 56.1106 92.1569 56.3356 92.4449 56.6296C92.7389 56.9176 92.9669 57.2626 93.1289 57.6646C93.2909 58.0666 93.3719 58.5106 93.3719 58.9966C93.3719 59.4826 93.2909 59.9296 93.1289 60.3376C92.9669 60.7396 92.7389 61.0846 92.4449 61.3726C92.1569 61.6606 91.8179 61.8856 91.4279 62.0476C91.0379 62.2036 90.6179 62.2816 90.1679 62.2816ZM90.1679 61.8766C90.4679 61.8766 90.7379 61.8136 90.9779 61.6876C91.2239 61.5556 91.4339 61.3666 91.6079 61.1206C91.7879 60.8746 91.9259 60.5746 92.0219 60.2206C92.1179 59.8606 92.1659 59.4526 92.1659 58.9966C92.1659 58.5406 92.1179 58.1356 92.0219 57.7816C91.9259 57.4276 91.7879 57.1276 91.6079 56.8816C91.4339 56.6296 91.2239 56.4406 90.9779 56.3146C90.7379 56.1826 90.4709 56.1166 90.1769 56.1166C89.8769 56.1166 89.6039 56.1826 89.3579 56.3146C89.1179 56.4406 88.9079 56.6296 88.7279 56.8816C88.5539 57.1276 88.4189 57.4276 88.3229 57.7816C88.2269 58.1356 88.1789 58.5406 88.1789 58.9966C88.1789 59.4526 88.2269 59.8606 88.3229 60.2206C88.4189 60.5746 88.5539 60.8746 88.7279 61.1206C88.9079 61.3666 89.1179 61.5556 89.3579 61.6876C89.6039 61.8136 89.8739 61.8766 90.1679 61.8766ZM95.487 62.1916V61.8586H95.577C95.691 61.8586 95.796 61.8436 95.892 61.8136C95.988 61.7836 96.066 61.7356 96.126 61.6696C96.186 61.5976 96.216 61.5016 96.216 61.3816V56.4496C96.216 56.3596 96.186 56.2936 96.126 56.2516C96.066 56.2036 95.988 56.1736 95.892 56.1616C95.796 56.1436 95.691 56.1346 95.577 56.1346H95.487V55.8016H97.692L99.357 61.2376L99.177 61.2016L100.95 55.8016H103.137V56.1346H103.065C102.891 56.1346 102.738 56.1556 102.606 56.1976C102.474 56.2336 102.408 56.3176 102.408 56.4496V61.5436C102.408 61.6756 102.471 61.7626 102.597 61.8046C102.729 61.8406 102.885 61.8586 103.065 61.8586H103.137V62.1916H100.554V61.8586H100.635C100.731 61.8586 100.827 61.8556 100.923 61.8496C101.019 61.8436 101.1 61.8346 101.166 61.8226C101.232 61.8046 101.265 61.7866 101.265 61.7686V55.8826L101.364 55.9006L99.303 62.2096H98.619L96.558 55.9096L96.666 55.9006V61.6336C96.666 61.6936 96.693 61.7416 96.747 61.7776C96.807 61.8076 96.885 61.8286 96.981 61.8406C97.077 61.8526 97.179 61.8586 97.287 61.8586H97.404V62.1916H95.487ZM107.061 61.6786C107.061 61.7206 107.082 61.7536 107.124 61.7776C107.166 61.7956 107.22 61.8136 107.286 61.8316C107.352 61.8436 107.424 61.8526 107.502 61.8586C107.58 61.8586 107.658 61.8586 107.736 61.8586H107.925V62.1916H105.198V61.8586H105.27C105.45 61.8586 105.603 61.8406 105.729 61.8046C105.861 61.7626 105.927 61.6756 105.927 61.5436V56.4496C105.927 56.3176 105.861 56.2336 105.729 56.1976C105.603 56.1556 105.45 56.1346 105.27 56.1346H105.198V55.8016H107.979C108.717 55.8016 109.296 55.9606 109.716 56.2786C110.136 56.5966 110.346 57.0436 110.346 57.6196C110.346 58.0036 110.247 58.3396 110.049 58.6276C109.851 58.9096 109.572 59.1286 109.212 59.2846C108.852 59.4406 108.426 59.5186 107.934 59.5186H106.782V59.1316H107.808C108.114 59.1316 108.369 59.0746 108.573 58.9606C108.777 58.8406 108.93 58.6696 109.032 58.4476C109.134 58.2256 109.185 57.9526 109.185 57.6286C109.185 57.3046 109.134 57.0376 109.032 56.8276C108.93 56.6176 108.78 56.4616 108.582 56.3596C108.384 56.2516 108.141 56.1976 107.853 56.1976H107.061V61.6786ZM113.153 59.6086H115.718L115.727 59.9956H113.045L113.153 59.6086ZM114.26 56.3866L114.485 56.4586L112.676 61.6786C112.676 61.7146 112.694 61.7476 112.73 61.7776C112.772 61.8016 112.835 61.8226 112.919 61.8406C113.003 61.8526 113.111 61.8586 113.243 61.8586H113.45V62.1916H111.659V61.8586H111.722C111.854 61.8586 111.971 61.8256 112.073 61.7596C112.181 61.6876 112.265 61.5676 112.325 61.3996L114.278 55.8016H115.187L117.212 61.5796C117.26 61.6996 117.329 61.7776 117.419 61.8136C117.509 61.8436 117.617 61.8586 117.743 61.8586H117.788V62.1916H115.367V61.8586H115.511C115.607 61.8586 115.7 61.8556 115.79 61.8496C115.886 61.8436 115.964 61.8346 116.024 61.8226C116.09 61.8046 116.123 61.7866 116.123 61.7686L114.26 56.3866ZM119.609 62.1916V61.8586H119.699C119.813 61.8586 119.918 61.8436 120.014 61.8136C120.11 61.7776 120.188 61.7236 120.248 61.6516C120.308 61.5796 120.338 61.4836 120.338 61.3636V56.4496C120.338 56.3596 120.305 56.2936 120.239 56.2516C120.179 56.2036 120.101 56.1736 120.005 56.1616C119.909 56.1436 119.807 56.1346 119.699 56.1346H119.609V55.8016H121.715L124.766 61.0756L124.613 61.2286V56.3686C124.613 56.3086 124.583 56.2606 124.523 56.2246C124.469 56.1886 124.391 56.1646 124.289 56.1526C124.193 56.1406 124.085 56.1346 123.965 56.1346H123.776V55.8016H125.792V56.1346H125.693C125.585 56.1346 125.483 56.1496 125.387 56.1796C125.291 56.2096 125.213 56.2606 125.153 56.3326C125.093 56.4046 125.063 56.5006 125.063 56.6206V62.1916H124.154L120.608 56.0356L120.788 56.0086V61.6246C120.788 61.6846 120.815 61.7326 120.869 61.7686C120.929 61.8046 121.01 61.8286 121.112 61.8406C121.214 61.8526 121.322 61.8586 121.436 61.8586H121.625V62.1916H119.609ZM128.519 61.5436V56.4496C128.519 56.3176 128.453 56.2336 128.321 56.1976C128.189 56.1556 128.033 56.1346 127.853 56.1346H127.79V55.8016H130.382V56.1346H130.31C130.136 56.1346 129.983 56.1556 129.851 56.1976C129.719 56.2336 129.653 56.3176 129.653 56.4496V61.5436C129.653 61.6756 129.719 61.7626 129.851 61.8046C129.983 61.8406 130.136 61.8586 130.31 61.8586H130.382V62.1916H127.79V61.8586H127.853C128.033 61.8586 128.189 61.8406 128.321 61.8046C128.453 61.7626 128.519 61.6756 128.519 61.5436ZM137.325 60.2926V62.1916H132.447V61.8586H132.51C132.69 61.8586 132.846 61.8376 132.978 61.7956C133.11 61.7536 133.176 61.6666 133.176 61.5346V56.4586C133.176 56.3266 133.11 56.2396 132.978 56.1976C132.846 56.1556 132.69 56.1346 132.51 56.1346H132.447V55.8016H137.127V57.4756H136.758L136.605 56.6566C136.581 56.5366 136.53 56.4436 136.452 56.3776C136.374 56.3116 136.26 56.2666 136.11 56.2426C135.96 56.2126 135.768 56.1976 135.534 56.1976H134.31V61.7956H135.669C135.861 61.7956 136.023 61.7896 136.155 61.7776C136.287 61.7596 136.395 61.7326 136.479 61.6966C136.569 61.6606 136.638 61.6126 136.686 61.5526C136.734 61.4926 136.764 61.4146 136.776 61.3186L136.938 60.2926H137.325ZM134.166 58.7536C134.478 58.7416 134.76 58.7296 135.012 58.7176C135.264 58.7056 135.498 58.6906 135.714 58.6726C135.93 58.6486 136.146 58.6126 136.362 58.5646V59.2936C136.146 59.2456 135.93 59.2096 135.714 59.1856C135.498 59.1556 135.264 59.1346 135.012 59.1226C134.76 59.1106 134.478 59.1016 134.166 59.0956V58.7536ZM142.121 61.8766C142.391 61.8766 142.625 61.8376 142.823 61.7596C143.027 61.6816 143.186 61.5586 143.3 61.3906C143.42 61.2166 143.48 60.9916 143.48 60.7156C143.48 60.4996 143.432 60.3226 143.336 60.1846C143.24 60.0406 143.108 59.9236 142.94 59.8336C142.778 59.7376 142.589 59.6536 142.373 59.5816C142.157 59.5096 141.926 59.4346 141.68 59.3566C141.452 59.2846 141.224 59.2036 140.996 59.1136C140.774 59.0176 140.573 58.8976 140.393 58.7536C140.213 58.6096 140.069 58.4326 139.961 58.2226C139.859 58.0066 139.808 57.7426 139.808 57.4306C139.808 57.0766 139.895 56.7736 140.069 56.5216C140.249 56.2636 140.489 56.0656 140.789 55.9276C141.089 55.7836 141.422 55.7116 141.788 55.7116C142.13 55.7116 142.424 55.7626 142.67 55.8646C142.922 55.9666 143.132 56.1136 143.3 56.3056C143.474 56.4976 143.612 56.7286 143.714 56.9986L143.39 56.7916L143.498 55.8016H143.903V57.4576H143.498C143.432 57.1816 143.321 56.9446 143.165 56.7466C143.015 56.5426 142.832 56.3866 142.616 56.2786C142.4 56.1706 142.16 56.1166 141.896 56.1166C141.632 56.1166 141.41 56.1586 141.23 56.2426C141.056 56.3206 140.921 56.4346 140.825 56.5846C140.735 56.7346 140.69 56.9146 140.69 57.1246C140.69 57.3286 140.735 57.4996 140.825 57.6376C140.915 57.7696 141.038 57.8836 141.194 57.9796C141.35 58.0696 141.527 58.1476 141.725 58.2136C141.929 58.2796 142.148 58.3426 142.382 58.4026C142.634 58.4746 142.877 58.5586 143.111 58.6546C143.351 58.7446 143.567 58.8616 143.759 59.0056C143.951 59.1436 144.104 59.3236 144.218 59.5456C144.332 59.7616 144.389 60.0286 144.389 60.3466C144.389 60.7486 144.29 61.0936 144.092 61.3816C143.894 61.6696 143.63 61.8916 143.3 62.0476C142.97 62.2036 142.601 62.2816 142.193 62.2816C141.827 62.2816 141.491 62.2276 141.185 62.1196C140.879 62.0116 140.618 61.8466 140.402 61.6246C140.186 61.3966 140.024 61.1086 139.916 60.7606L140.204 61.0306L140.096 62.1916H139.673V60.2296H140.087C140.195 60.5956 140.342 60.9016 140.528 61.1476C140.714 61.3936 140.939 61.5766 141.203 61.6966C141.473 61.8166 141.779 61.8766 142.121 61.8766Z" fill="white"/>
<path d="M50.5228 72.8766C50.7928 72.8766 51.0268 72.8376 51.2248 72.7596C51.4288 72.6816 51.5878 72.5586 51.7018 72.3906C51.8218 72.2166 51.8818 71.9916 51.8818 71.7156C51.8818 71.4996 51.8338 71.3226 51.7378 71.1846C51.6418 71.0406 51.5098 70.9236 51.3418 70.8336C51.1798 70.7376 50.9908 70.6536 50.7748 70.5816C50.5588 70.5096 50.3278 70.4346 50.0818 70.3566C49.8538 70.2846 49.6258 70.2036 49.3978 70.1136C49.1758 70.0176 48.9748 69.8976 48.7948 69.7536C48.6148 69.6096 48.4708 69.4326 48.3628 69.2226C48.2608 69.0066 48.2098 68.7426 48.2098 68.4306C48.2098 68.0766 48.2968 67.7736 48.4708 67.5216C48.6508 67.2636 48.8908 67.0656 49.1908 66.9276C49.4908 66.7836 49.8238 66.7116 50.1898 66.7116C50.5318 66.7116 50.8258 66.7626 51.0718 66.8646C51.3238 66.9666 51.5338 67.1136 51.7018 67.3056C51.8758 67.4976 52.0138 67.7286 52.1158 67.9986L51.7918 67.7916L51.8998 66.8016H52.3048V68.4576H51.8998C51.8338 68.1816 51.7228 67.9446 51.5668 67.7466C51.4168 67.5426 51.2338 67.3866 51.0178 67.2786C50.8018 67.1706 50.5618 67.1166 50.2978 67.1166C50.0338 67.1166 49.8118 67.1586 49.6318 67.2426C49.4578 67.3206 49.3228 67.4346 49.2268 67.5846C49.1368 67.7346 49.0918 67.9146 49.0918 68.1246C49.0918 68.3286 49.1368 68.4996 49.2268 68.6376C49.3168 68.7696 49.4398 68.8836 49.5958 68.9796C49.7518 69.0696 49.9288 69.1476 50.1268 69.2136C50.3308 69.2796 50.5498 69.3426 50.7838 69.4026C51.0358 69.4746 51.2788 69.5586 51.5128 69.6546C51.7528 69.7446 51.9688 69.8616 52.1608 70.0056C52.3528 70.1436 52.5058 70.3236 52.6198 70.5456C52.7338 70.7616 52.7908 71.0286 52.7908 71.3466C52.7908 71.7486 52.6918 72.0936 52.4938 72.3816C52.2958 72.6696 52.0318 72.8916 51.7018 73.0476C51.3718 73.2036 51.0028 73.2816 50.5948 73.2816C50.2288 73.2816 49.8928 73.2276 49.5868 73.1196C49.2808 73.0116 49.0198 72.8466 48.8038 72.6246C48.5878 72.3966 48.4258 72.1086 48.3178 71.7606L48.6058 72.0306L48.4978 73.1916H48.0748V71.2296H48.4888C48.5968 71.5956 48.7438 71.9016 48.9298 72.1476C49.1158 72.3936 49.3408 72.5766 49.6048 72.6966C49.8748 72.8166 50.1808 72.8766 50.5228 72.8766ZM55.9976 72.5436V67.4496C55.9976 67.3176 55.9316 67.2336 55.7996 67.1976C55.6676 67.1556 55.5116 67.1346 55.3316 67.1346H55.2686V66.8016H57.8606V67.1346H57.7886C57.6146 67.1346 57.4616 67.1556 57.3296 67.1976C57.1976 67.2336 57.1316 67.3176 57.1316 67.4496V72.5436C57.1316 72.6756 57.1976 72.7626 57.3296 72.8046C57.4616 72.8406 57.6146 72.8586 57.7886 72.8586H57.8606V73.1916H55.2686V72.8586H55.3316C55.5116 72.8586 55.6676 72.8406 55.7996 72.8046C55.9316 72.7626 55.9976 72.6756 55.9976 72.5436ZM60.2854 73.1916V72.8586H60.3754C60.4894 72.8586 60.5944 72.8436 60.6904 72.8136C60.7864 72.7776 60.8644 72.7236 60.9244 72.6516C60.9844 72.5796 61.0144 72.4836 61.0144 72.3636V67.4496C61.0144 67.3596 60.9814 67.2936 60.9154 67.2516C60.8554 67.2036 60.7774 67.1736 60.6814 67.1616C60.5854 67.1436 60.4834 67.1346 60.3754 67.1346H60.2854V66.8016H62.3914L65.4424 72.0756L65.2894 72.2286V67.3686C65.2894 67.3086 65.2594 67.2606 65.1994 67.2246C65.1454 67.1886 65.0674 67.1646 64.9654 67.1526C64.8694 67.1406 64.7614 67.1346 64.6414 67.1346H64.4524V66.8016H66.4684V67.1346H66.3694C66.2614 67.1346 66.1594 67.1496 66.0634 67.1796C65.9674 67.2096 65.8894 67.2606 65.8294 67.3326C65.7694 67.4046 65.7394 67.5006 65.7394 67.6206V73.1916H64.8304L61.2844 67.0356L61.4644 67.0086V72.6246C61.4644 72.6846 61.4914 72.7326 61.5454 72.7686C61.6054 72.8046 61.6864 72.8286 61.7884 72.8406C61.8904 72.8526 61.9984 72.8586 62.1124 72.8586H62.3014V73.1916H60.2854ZM72.0848 67.1256C71.7788 67.1256 71.4998 67.1916 71.2478 67.3236C71.0018 67.4556 70.7888 67.6476 70.6088 67.8996C70.4348 68.1456 70.2998 68.4456 70.2038 68.7996C70.1138 69.1536 70.0688 69.5526 70.0688 69.9966C70.0688 70.4526 70.1138 70.8576 70.2038 71.2116C70.2998 71.5656 70.4378 71.8656 70.6178 72.1116C70.7978 72.3516 71.0138 72.5376 71.2658 72.6696C71.5178 72.7956 71.8028 72.8586 72.1208 72.8586C72.4808 72.8586 72.8018 72.7806 73.0838 72.6246C73.3658 72.4626 73.6028 72.2406 73.7948 71.9586C73.9928 71.6766 74.1368 71.3496 74.2268 70.9776L74.5958 71.1216C74.4938 71.5476 74.3258 71.9226 74.0918 72.2466C73.8638 72.5706 73.5728 72.8256 73.2188 73.0116C72.8648 73.1916 72.4598 73.2816 72.0038 73.2816C71.5478 73.2816 71.1278 73.2036 70.7438 73.0476C70.3658 72.8856 70.0358 72.6606 69.7538 72.3726C69.4718 72.0786 69.2528 71.7306 69.0968 71.3286C68.9408 70.9266 68.8628 70.4826 68.8628 69.9966C68.8628 69.5106 68.9408 69.0696 69.0968 68.6736C69.2588 68.2716 69.4808 67.9236 69.7628 67.6296C70.0508 67.3356 70.3838 67.1106 70.7618 66.9546C71.1398 66.7926 71.5478 66.7116 71.9858 66.7116C72.3758 66.7116 72.7208 66.7776 73.0208 66.9096C73.3208 67.0356 73.5698 67.2096 73.7678 67.4316C73.9658 67.6536 74.1098 67.9116 74.1998 68.2056L73.9208 68.0616L74.0648 66.8016H74.4788V68.7276H74.0648C73.9508 68.4036 73.8068 68.1246 73.6328 67.8906C73.4648 67.6506 73.2518 67.4646 72.9938 67.3326C72.7418 67.1946 72.4388 67.1256 72.0848 67.1256ZM81.903 71.2926V73.1916H77.025V72.8586H77.088C77.268 72.8586 77.424 72.8376 77.556 72.7956C77.688 72.7536 77.754 72.6666 77.754 72.5346V67.4586C77.754 67.3266 77.688 67.2396 77.556 67.1976C77.424 67.1556 77.268 67.1346 77.088 67.1346H77.025V66.8016H81.705V68.4756H81.336L81.183 67.6566C81.159 67.5366 81.108 67.4436 81.03 67.3776C80.952 67.3116 80.838 67.2666 80.688 67.2426C80.538 67.2126 80.346 67.1976 80.112 67.1976H78.888V72.7956H80.247C80.439 72.7956 80.601 72.7896 80.733 72.7776C80.865 72.7596 80.973 72.7326 81.057 72.6966C81.147 72.6606 81.216 72.6126 81.264 72.5526C81.312 72.4926 81.342 72.4146 81.354 72.3186L81.516 71.2926H81.903ZM78.744 69.7536C79.056 69.7416 79.338 69.7296 79.59 69.7176C79.842 69.7056 80.076 69.6906 80.292 69.6726C80.508 69.6486 80.724 69.6126 80.94 69.5646V70.2936C80.724 70.2456 80.508 70.2096 80.292 70.1856C80.076 70.1556 79.842 70.1346 79.59 70.1226C79.338 70.1106 79.056 70.1016 78.744 70.0956V69.7536ZM90.9635 72.3906C91.2095 72.3906 91.4075 72.3786 91.5575 72.3546C91.7135 72.3306 91.8275 72.2856 91.8995 72.2196C91.9775 72.1476 92.0285 72.0486 92.0525 71.9226L92.1605 71.2566H92.5295V73.1916H88.2725V72.5256C88.6205 72.3216 88.9445 72.1236 89.2445 71.9316C89.5505 71.7396 89.8235 71.5416 90.0635 71.3376C90.3095 71.1336 90.5195 70.9236 90.6935 70.7076C90.8735 70.4856 91.0085 70.2486 91.0985 69.9966C91.1945 69.7446 91.2425 69.4716 91.2425 69.1776C91.2425 68.8896 91.2035 68.6616 91.1255 68.4936C91.0475 68.3196 90.9335 68.1936 90.7835 68.1156C90.6395 68.0316 90.4625 67.9896 90.2525 67.9896C90.0365 67.9896 89.8445 68.0256 89.6765 68.0976C89.5085 68.1636 89.3675 68.2536 89.2535 68.3676C89.1395 68.4756 89.0435 68.5896 88.9655 68.7096C88.9655 68.6676 88.9745 68.6166 88.9925 68.5566C89.0165 68.4966 89.0465 68.4396 89.0825 68.3856C89.1185 68.3256 89.1575 68.2746 89.1995 68.2326C89.2475 68.1846 89.2985 68.1576 89.3525 68.1516V69.2586H88.4255V68.3856C88.5335 68.2656 88.6805 68.1486 88.8665 68.0346C89.0585 67.9146 89.2805 67.8186 89.5325 67.7466C89.7845 67.6686 90.0575 67.6296 90.3515 67.6296C90.7595 67.6296 91.1105 67.6896 91.4045 67.8096C91.7045 67.9296 91.9325 68.1036 92.0885 68.3316C92.2505 68.5596 92.3315 68.8446 92.3315 69.1866C92.3315 69.4686 92.2595 69.7446 92.1155 70.0146C91.9715 70.2786 91.7735 70.5336 91.5215 70.7796C91.2755 71.0256 90.9935 71.2596 90.6755 71.4816C90.3635 71.7036 90.0335 71.9136 89.6855 72.1116C89.3435 72.3036 89.0075 72.4866 88.6775 72.6606C88.6595 72.6486 88.6625 72.6276 88.6865 72.5976C88.7165 72.5616 88.7495 72.5226 88.7855 72.4806C88.8215 72.4386 88.8485 72.4086 88.8665 72.3906H90.9635ZM97.2687 73.2816C96.9387 73.2816 96.6357 73.2156 96.3597 73.0836C96.0897 72.9516 95.8557 72.7626 95.6577 72.5166C95.4597 72.2646 95.3067 71.9646 95.1987 71.6166C95.0907 71.2686 95.0367 70.8786 95.0367 70.4466C95.0367 70.0206 95.0907 69.6336 95.1987 69.2856C95.3067 68.9376 95.4597 68.6406 95.6577 68.3946C95.8557 68.1486 96.0897 67.9596 96.3597 67.8276C96.6357 67.6896 96.9387 67.6206 97.2687 67.6206C97.5987 67.6206 97.8987 67.6896 98.1687 67.8276C98.4447 67.9596 98.6817 68.1486 98.8797 68.3946C99.0777 68.6406 99.2307 68.9376 99.3387 69.2856C99.4467 69.6336 99.5007 70.0206 99.5007 70.4466C99.5007 70.8786 99.4467 71.2686 99.3387 71.6166C99.2307 71.9646 99.0777 72.2646 98.8797 72.5166C98.6817 72.7626 98.4447 72.9516 98.1687 73.0836C97.8987 73.2156 97.5987 73.2816 97.2687 73.2816ZM97.2687 72.9216C97.4547 72.9216 97.6167 72.8706 97.7547 72.7686C97.8987 72.6606 98.0187 72.5046 98.1147 72.3006C98.2107 72.0906 98.2797 71.8326 98.3217 71.5266C98.3697 71.2206 98.3937 70.8606 98.3937 70.4466C98.3937 70.0386 98.3697 69.6816 98.3217 69.3756C98.2797 69.0636 98.2107 68.8056 98.1147 68.6016C98.0187 68.3916 97.8987 68.2356 97.7547 68.1336C97.6167 68.0316 97.4547 67.9806 97.2687 67.9806C97.0827 67.9806 96.9177 68.0316 96.7737 68.1336C96.6357 68.2356 96.5187 68.3916 96.4227 68.6016C96.3267 68.8056 96.2547 69.0636 96.2067 69.3756C96.1647 69.6816 96.1437 70.0386 96.1437 70.4466C96.1437 70.8546 96.1647 71.2146 96.2067 71.5266C96.2547 71.8326 96.3267 72.0906 96.4227 72.3006C96.5187 72.5046 96.6357 72.6606 96.7737 72.7686C96.9177 72.8706 97.0827 72.9216 97.2687 72.9216ZM104.888 72.5166C104.888 72.6066 104.93 72.6786 105.014 72.7326C105.098 72.7806 105.221 72.8136 105.383 72.8316C105.545 72.8496 105.74 72.8586 105.968 72.8586H106.238V73.1916H102.413V72.8586H102.782C102.992 72.8586 103.172 72.8496 103.322 72.8316C103.472 72.8136 103.586 72.7806 103.664 72.7326C103.748 72.6786 103.79 72.6066 103.79 72.5166V68.2596L103.925 68.1696C103.877 68.2896 103.799 68.4066 103.691 68.5206C103.583 68.6286 103.454 68.7246 103.304 68.8086C103.154 68.8926 102.989 68.9586 102.809 69.0066C102.635 69.0546 102.449 69.0786 102.251 69.0786V68.4486C102.497 68.4486 102.716 68.4336 102.908 68.4036C103.106 68.3736 103.283 68.3286 103.439 68.2686C103.601 68.2086 103.742 68.1336 103.862 68.0436C103.982 67.9476 104.084 67.8366 104.168 67.7106H104.888V72.5166ZM110.482 68.5116C110.242 68.5116 110.047 68.5266 109.897 68.5566C109.747 68.5806 109.633 68.6316 109.555 68.7096C109.477 68.7816 109.426 68.8896 109.402 69.0336L109.267 69.7806H108.916V67.7106H113.218V68.3316C112.948 68.6916 112.696 69.0516 112.462 69.4116C112.228 69.7716 112.018 70.1616 111.832 70.5816C111.646 71.0016 111.493 71.4786 111.373 72.0126C111.253 72.5466 111.169 73.1706 111.121 73.8846H110.023C110.089 73.3446 110.206 72.8256 110.374 72.3276C110.548 71.8296 110.752 71.3616 110.986 70.9236C111.22 70.4856 111.46 70.0896 111.706 69.7356C111.952 69.3816 112.177 69.0816 112.381 68.8356C112.591 68.5836 112.753 68.3976 112.867 68.2776L112.903 68.5116H110.482Z" fill="white"/>
</svg>
