<svg width="173" height="167" viewBox="0 0 173 167" fill="none" xmlns="http://www.w3.org/2000/svg">
<path d="M132.546 59.5746H137.082V55.6537H123.794V59.5746H128.348V112.773H132.539V59.5746H132.546ZM106.417 84.8581H110.113V112.767H114.305V55.6478H110.113V80.9314H106.417V55.6478H102.207V112.767H106.417V84.8581ZM91.8787 71.7358V61.368C91.8787 57.4647 89.5352 55.0031 85.8207 55.0031C82.2088 55.0031 79.7747 57.4647 79.7747 61.368V67.4163C79.7747 81.9218 87.5844 82.5841 87.5844 97.6698V104.035C87.5844 108.606 87.3428 109.503 85.7361 109.503C84.1416 109.503 83.906 108.606 83.906 104.035V94.2471H79.6962V107.059C79.6962 110.98 82.2149 113.424 85.7422 113.424C89.2876 113.424 91.7157 110.98 91.8002 107.059V97.3416C91.8002 82.59 83.9785 82.1739 83.9785 66.842V64.398C83.9785 59.8266 84.2382 58.9299 85.8267 58.9299C87.4334 58.9299 87.675 59.8266 87.675 64.398V71.7416H91.8787V71.7358ZM61.4738 65.2068C61.4738 60.6354 61.2865 58.9299 63.3039 58.9299C65.3212 58.9299 65.1521 60.6412 65.1521 65.2068V103.22C65.1521 107.791 65.3212 109.497 63.3039 109.497C61.2865 109.497 61.4738 107.786 61.4738 103.22V65.2068ZM69.368 61.368C69.368 57.4647 67.0063 55.0031 63.3099 55.0031C59.698 55.0031 57.264 57.4647 57.264 61.368V107.053C57.264 110.974 59.6074 113.418 63.3099 113.418C66.9218 113.418 69.368 110.974 69.368 107.053V61.368ZM57.264 47.1614H69.368V51.3284H57.264V47.1614ZM170.277 86.1885C170.621 86.3526 171.527 86.4229 171.974 85.6903C172.367 84.9929 171.871 84.2603 171.527 84.0435C171.062 83.7797 171.183 83.9262 170.053 83.7094L168.459 83.3284L167.722 82.9475L168.459 82.5665L170.053 82.2325C171.237 81.998 171.062 82.1153 171.575 81.8515C171.865 81.6171 172.361 80.9021 171.968 80.1929C171.521 79.4779 170.615 79.5424 170.271 79.7592C169.757 79.9761 169.999 79.9761 169.244 80.7907L168.115 81.9511L167.378 82.4024V81.5702L167.891 80.023C168.284 78.927 168.284 79.1438 168.284 78.5929C168.284 78.212 167.891 77.4442 167.033 77.4442C166.176 77.4442 165.783 78.2061 165.783 78.5929C165.783 79.1438 165.783 78.927 166.176 80.023L166.689 81.5702V82.4024L165.952 81.9511L164.871 80.7907C164.086 79.8588 164.255 79.9761 163.79 79.7123C163.446 79.5482 162.54 79.4779 162.093 80.1929C161.7 80.9079 162.214 81.6229 162.54 81.8515C163.005 82.1153 162.83 82.0039 164.014 82.168L165.608 82.5665L166.291 82.9475L165.608 83.3284L164.014 83.6625C162.83 83.8794 163.005 83.7797 162.491 84.0435C162.22 84.2603 161.706 84.9929 162.099 85.6903C162.546 86.4229 163.452 86.3526 163.796 86.1416C164.309 85.9248 164.086 86.0244 164.823 85.0926L165.952 83.9321L166.689 83.5512V84.3306L166.176 85.8603C165.783 86.9739 165.783 86.7394 165.783 87.2904C165.783 87.6889 166.176 88.4508 167.033 88.4508C167.891 88.4508 168.284 87.6889 168.284 87.2904C168.284 86.7394 168.229 86.9094 167.891 85.8603L167.378 84.3306V83.5512L168.115 83.9321L169.196 85.0926C170.005 86.0244 169.83 85.9248 170.277 86.1885ZM8.32852 86.1885C8.65467 86.3526 9.57878 86.4229 10.0257 85.6903C10.4183 84.9929 9.90494 84.2603 9.57879 84.0435C9.11371 83.7797 9.23451 83.9262 8.08693 83.7094L6.49239 83.3284L5.77363 82.9475L6.49239 82.5665L8.08693 82.2325C9.28283 81.998 9.1137 82.1153 9.6271 81.8515C9.89889 81.6171 10.4123 80.9021 10.0197 80.1929C9.57274 79.4779 8.64864 79.5424 8.32248 79.7592C7.80909 79.9761 8.03256 79.9761 7.29569 80.7907L6.16623 81.9511L5.41124 82.4024V81.5702L5.92463 80.023C6.33535 78.927 6.33534 79.1438 6.33534 78.5929C6.33534 78.212 5.92463 77.4442 5.08508 77.4442C4.22742 77.4442 3.83482 78.2061 3.83482 78.5929C3.83482 79.1438 3.83482 78.927 4.22742 80.023L4.7408 81.5702V82.4024L4.00393 81.9511L2.92279 80.7907C2.11948 79.8588 2.28859 79.9761 1.84164 79.7123C1.49737 79.5482 0.591378 79.4779 0.144424 80.1929C-0.24817 80.9079 0.247106 81.6229 0.591382 81.8515C1.03834 82.1153 0.86318 82.0039 2.06512 82.168L3.65966 82.5665L4.34217 82.9475L3.65966 83.3284L2.06512 83.6625C0.86922 83.8794 1.03833 83.7797 0.543061 84.0435C0.253145 84.2603 -0.242125 84.9929 0.15047 85.6903C0.597424 86.4229 1.50341 86.3526 1.84769 86.1416C2.36108 85.9248 2.11948 86.0244 2.87447 85.0926L4.00393 83.9321L4.7408 83.5512V84.3306L4.22742 85.8603C3.83482 86.9739 3.83482 86.7394 3.83482 87.2904C3.83482 87.6889 4.22742 88.4508 5.08508 88.4508C5.92463 88.4508 6.33534 87.6889 6.33534 87.2904C6.33534 86.7394 6.26891 86.9094 5.92463 85.8603L5.41124 84.3306V83.5512L6.16623 83.9321L7.24738 85.0926C8.03861 86.0244 7.86948 85.9248 8.32852 86.1885ZM40.7085 84.8581H42.7259V104.029C42.7259 108.6 42.4661 109.497 40.8776 109.497C39.271 109.497 39.0294 108.6 39.0294 104.029V64.3922C39.0294 59.8207 39.271 58.924 40.8776 58.924C42.4722 58.924 42.7259 59.8207 42.7259 64.3922V74.1797H46.9176V61.368C46.9176 57.4647 44.5741 55.0031 40.8716 55.0031C37.2416 55.0031 34.8136 57.4647 34.8136 61.368V107.053C34.8136 110.974 37.1752 113.418 40.8716 113.418C44.4835 113.418 46.9176 110.974 46.9176 107.053V80.9372H40.7025V84.8581H40.7085Z" fill="white" fill-opacity="0.02"/>
<path d="M18.7425 136.512C18.0721 135.732 17.8003 135 17.8849 134.302C17.9875 133.605 18.4345 132.942 19.2016 132.327L24.0818 128.471C24.4442 128.172 24.8187 127.937 25.2113 127.773C25.6039 127.591 25.9965 127.509 26.4072 127.509C26.7998 127.492 27.1924 127.574 27.5729 127.761C27.9655 127.943 28.3279 128.242 28.6842 128.658C29.3365 129.438 29.6083 130.153 29.5057 130.85C29.403 131.53 29.0104 132.128 28.3581 132.661L28.2373 132.743L26.7333 131.547C27.0957 131.266 27.3313 130.967 27.434 130.651C27.5548 130.352 27.4883 130.053 27.2467 129.772C27.1078 129.608 26.9568 129.49 26.7817 129.438C26.6246 129.385 26.4555 129.385 26.2864 129.42C26.1293 129.455 25.9602 129.52 25.8092 129.602C25.6522 129.684 25.5193 129.766 25.3985 129.865L20.4337 133.804C20.331 133.886 20.2465 133.968 20.174 134.068C20.0169 134.232 19.9143 134.419 19.8659 134.63C19.8176 134.841 19.9022 135.082 20.1075 135.345C20.331 135.609 20.5847 135.761 20.8444 135.808C21.1162 135.843 21.3759 135.773 21.6296 135.574L23.5443 134.062L22.8255 133.2L24.1422 132.151L26.0931 134.478L22.9765 136.951C22.2034 137.549 21.4544 137.801 20.6994 137.701C19.9747 137.59 19.3042 137.191 18.7425 136.512Z" fill="white" fill-opacity="0.02"/>
<path d="M34.39 146.996C33.6894 147.811 32.9526 148.256 32.2157 148.373C31.4788 148.473 30.7117 148.192 29.8843 147.524C29.081 146.861 28.6702 146.176 28.6521 145.478C28.634 144.781 28.942 144.048 29.6125 143.304L33.7015 138.621C34.0277 138.24 34.3538 137.941 34.7102 137.707C35.0665 137.472 35.4289 137.326 35.8034 137.256C36.1779 137.191 36.5584 137.22 36.9691 137.338C37.3798 137.472 37.7905 137.701 38.2012 138.035C38.6301 138.398 38.9562 138.768 39.1616 139.113C39.3669 139.477 39.4515 139.846 39.4515 140.192C39.4334 140.555 39.3488 140.924 39.1616 141.288C38.9744 141.669 38.6965 142.038 38.3764 142.419L34.39 146.996ZM36.9751 141.094C37.1986 140.831 37.3496 140.543 37.4221 140.245C37.4764 139.946 37.3557 139.664 37.0295 139.395C36.8604 139.26 36.6671 139.178 36.498 139.16C36.3289 139.143 36.1537 139.178 36.0027 139.225C35.8457 139.289 35.6947 139.389 35.5376 139.506C35.3987 139.623 35.2779 139.741 35.1752 139.858L31.0681 144.558C30.8627 144.793 30.7419 145.056 30.6936 145.355C30.6574 145.654 30.7782 145.918 31.0862 146.17C31.3942 146.422 31.6842 146.504 31.9922 146.404C32.3002 146.305 32.572 146.123 32.8318 145.842L36.9751 141.094ZM37.0235 136.031L38.0684 134.835L41.4749 137.625L40.43 138.82L37.0235 136.031Z" fill="white" fill-opacity="0.02"/>
<path d="M47.5224 154.836C47.2506 155.316 46.9426 155.715 46.6345 156.049C46.3084 156.383 45.9641 156.629 45.6077 156.782C45.2333 156.934 44.8346 156.981 44.3937 156.934C43.9468 156.881 43.4696 156.717 42.9562 156.436C42.4912 156.172 42.1167 155.873 41.863 155.557C41.5912 155.24 41.416 154.906 41.3315 154.543C41.2469 154.191 41.2469 153.828 41.3315 153.464C41.416 153.101 41.5731 152.732 41.7784 152.368L43.681 153.001C43.4575 153.418 43.3367 153.781 43.3367 154.097C43.3186 154.431 43.5059 154.695 43.9045 154.912C44.1461 155.047 44.3514 155.094 44.5387 155.094C44.7259 155.076 44.883 155.029 45.034 154.912C45.191 154.812 45.3239 154.66 45.4628 154.496C45.5836 154.314 45.7044 154.133 45.8252 153.933C45.9822 153.681 46.0849 153.453 46.1513 153.271C46.2178 153.072 46.254 152.89 46.2359 152.72C46.2178 152.556 46.1513 152.368 46.0487 152.187C45.946 152.005 45.7889 151.788 45.5836 151.524C45.191 151.026 44.9011 150.575 44.7078 150.165C44.5206 149.766 44.4179 149.403 44.3998 149.051C44.3816 148.7 44.436 148.389 44.5387 148.072C44.6595 147.774 44.8105 147.439 45.0158 147.111C45.2574 146.678 45.5474 146.314 45.8554 146.015C46.1815 145.716 46.5258 145.5 46.9003 145.365C47.2748 145.23 47.6734 145.183 48.0962 145.23C48.525 145.283 48.972 145.429 49.4491 145.693C49.9625 145.974 50.337 146.291 50.5786 146.642C50.8202 146.994 50.9712 147.34 51.0256 147.692C51.0799 148.055 51.0618 148.407 50.9712 148.741C50.8866 149.092 50.7658 149.391 50.5967 149.672L48.6821 149.11C48.9055 148.729 49.0263 148.36 49.0445 148.049C49.0445 147.733 48.8572 147.469 48.4646 147.252C48.2593 147.135 48.072 147.088 47.8969 147.088C47.7278 147.105 47.5707 147.17 47.4197 147.252C47.2627 147.352 47.1298 147.469 47.0271 147.604C46.9245 147.756 46.8218 147.885 46.7191 148.055C46.6164 148.237 46.5319 148.407 46.4775 148.553C46.4111 148.688 46.3929 148.852 46.4231 149.034C46.4413 149.215 46.5258 149.415 46.6466 149.649C46.7855 149.883 46.9728 150.165 47.2446 150.481C47.619 150.944 47.8788 151.343 48.0479 151.712C48.217 152.093 48.2895 152.445 48.2895 152.773C48.2895 153.101 48.223 153.435 48.0841 153.769C47.9512 154.068 47.758 154.437 47.5224 154.836Z" fill="white" fill-opacity="0.02"/>
<path d="M58.6296 163.141L60.4476 158.089L58.3216 157.374L56.5096 162.426L54.6614 161.793L58.8229 150.247L60.6711 150.88L58.9256 155.698L61.0456 156.43L62.7911 151.595L64.6393 152.21L60.4839 163.774L58.6296 163.141Z" fill="white" fill-opacity="0.02"/>
<path d="M75.0696 156.23L73.3724 166.563L71.4396 166.264L73.1308 155.931L71.1316 155.615L71.4215 153.868L77.3648 154.782L77.0688 156.547L75.0696 156.23Z" fill="white" fill-opacity="0.02"/>
<path d="M99.1932 166.662C98.1664 166.796 97.3631 166.662 96.7953 166.228C96.2276 165.777 95.8712 165.079 95.7323 164.101L94.8082 158.07C94.7417 157.618 94.7236 157.191 94.7719 156.774C94.8263 156.358 94.941 155.977 95.1464 155.643C95.3336 155.309 95.6115 155.028 95.9678 154.794C96.3242 154.559 96.7711 154.413 97.3389 154.331C98.3476 154.178 99.1388 154.331 99.6824 154.764C100.25 155.216 100.57 155.843 100.709 156.657L100.727 156.792L98.8791 157.443C98.8126 156.991 98.6737 156.646 98.4684 156.394C98.2449 156.142 97.955 156.042 97.5805 156.095C97.357 156.13 97.1879 156.194 97.049 156.311C96.9282 156.429 96.8436 156.563 96.7893 156.71C96.7228 156.874 96.7047 157.044 96.6866 157.208C96.6866 157.39 96.7047 157.542 96.7228 157.689L97.6651 163.854C97.6832 163.972 97.7194 164.106 97.7677 164.206C97.8342 164.423 97.955 164.587 98.112 164.757C98.2811 164.909 98.5227 164.956 98.867 164.909C99.2113 164.857 99.465 164.745 99.6522 164.528C99.8213 164.329 99.8938 164.077 99.8394 163.778L99.477 161.387L98.3476 161.551L98.106 159.922L101.168 159.47L101.748 163.339C101.905 164.288 101.73 165.05 101.253 165.613C100.776 166.175 100.081 166.527 99.1932 166.662Z" fill="white" fill-opacity="0.02"/>
<path d="M110.493 151.333C111.472 150.998 112.305 151.016 113.042 151.368C113.779 151.702 114.359 152.464 114.787 153.659C115.047 154.392 115.162 155.037 115.132 155.605C115.095 156.185 114.86 156.701 114.431 157.182L118.025 161.753L116.14 162.386L112.903 158.113L112.027 158.412L113.724 163.195L111.876 163.81L107.769 152.247L110.493 151.333ZM110.215 153.308L111.411 156.695L112.166 156.431C112.643 156.279 112.951 156.033 113.09 155.681C113.211 155.33 113.175 154.849 112.969 154.251C112.782 153.718 112.522 153.355 112.184 153.12C111.858 152.903 111.447 152.886 110.934 153.056L110.215 153.308Z" fill="white" fill-opacity="0.02"/>
<path d="M130.372 152.246C130.922 153.178 131.127 153.993 130.97 154.708C130.813 155.423 130.287 156.038 129.363 156.536C128.439 157.052 127.636 157.198 126.947 156.97C126.265 156.753 125.679 156.22 125.166 155.358L122.031 150.007C121.789 149.591 121.602 149.193 121.499 148.777C121.397 148.378 121.378 147.997 121.445 147.628C121.499 147.264 121.668 146.913 121.922 146.596C122.182 146.262 122.538 145.981 123.015 145.717C123.511 145.436 123.976 145.266 124.386 145.201C124.797 145.149 125.19 145.184 125.534 145.319C125.878 145.453 126.204 145.67 126.494 145.952C126.784 146.25 127.062 146.614 127.316 147.065L130.372 152.246ZM125.558 147.874C125.389 147.575 125.166 147.341 124.888 147.194C124.616 147.03 124.308 147.042 123.927 147.247C123.74 147.364 123.601 147.499 123.517 147.663C123.45 147.815 123.414 147.979 123.414 148.144C123.432 148.308 123.468 148.478 123.535 148.642C123.589 148.806 123.674 148.976 123.74 149.105L126.893 154.438C127.05 154.719 127.267 154.919 127.545 155.071C127.805 155.206 128.113 155.188 128.469 154.989C128.814 154.807 128.983 154.555 129.001 154.239C129.019 153.922 128.916 153.606 128.729 153.278L125.558 147.874Z" fill="white" fill-opacity="0.02"/>
<path d="M136.702 136.248L142.76 143.176C143.461 143.99 143.805 144.752 143.805 145.485C143.787 146.2 143.394 146.897 142.573 147.56C141.769 148.222 140.996 148.509 140.278 148.421C139.559 148.322 138.876 147.906 138.224 147.161L132.045 140.07L133.537 138.839L139.734 145.948C139.957 146.2 140.199 146.364 140.507 146.446C140.797 146.546 141.087 146.464 141.395 146.212C141.703 145.96 141.824 145.678 141.769 145.362C141.733 145.063 141.582 144.764 141.322 144.483L135.21 137.473L136.702 136.248Z" fill="white" fill-opacity="0.02"/>
<path d="M143.913 128.719C144.65 127.84 145.417 127.389 146.227 127.36C147.03 127.324 147.954 127.723 148.999 128.555C149.464 128.919 149.838 129.288 150.147 129.669C150.436 130.05 150.642 130.431 150.744 130.847C150.847 131.263 150.829 131.697 150.708 132.124C150.587 132.576 150.316 133.039 149.905 133.519L149.392 134.117L153.142 137.089L151.91 138.565L142.15 130.806L143.913 128.719ZM144.801 130.46L147.954 132.968L148.401 132.453C148.775 132.001 148.914 131.574 148.794 131.193C148.673 130.794 148.347 130.396 147.803 129.962C147.326 129.581 146.879 129.364 146.468 129.311C146.039 129.259 145.647 129.464 145.272 129.909L144.801 130.46Z" fill="white" fill-opacity="0.02"/>
<path d="M34.3714 27.5443C34.764 27.9428 35.0901 28.3238 35.3317 28.7223C35.5733 29.1033 35.7062 29.4842 35.7606 29.871C35.8149 30.2578 35.7425 30.6505 35.5915 31.0491C35.4223 31.4476 35.1143 31.8461 34.6855 32.2447C34.311 32.608 33.9124 32.8776 33.5198 33.0241C33.1272 33.1882 32.7467 33.2586 32.3722 33.241C31.9977 33.2234 31.6353 33.1238 31.291 32.9421C30.9468 32.7604 30.6387 32.5084 30.3307 32.2271L31.4783 30.6329C31.8225 30.9494 32.1487 31.1487 32.4688 31.2483C32.795 31.348 33.103 31.2483 33.4292 30.9494C33.6345 30.7677 33.7372 30.586 33.7916 30.4161C33.8278 30.2344 33.8097 30.0644 33.7553 29.8827C33.6889 29.7186 33.5862 29.5487 33.4473 29.3846C33.3084 29.2205 33.1574 29.0505 32.9822 28.8864C32.7769 28.6696 32.5896 28.5055 32.4145 28.3882C32.2393 28.271 32.0702 28.2066 31.9011 28.1714C31.7319 28.1362 31.5266 28.1362 31.3212 28.189C31.1159 28.2534 30.8562 28.3238 30.5481 28.441C29.932 28.6754 29.4005 28.8219 28.9536 28.8923C28.4885 28.9567 28.0959 28.945 27.7577 28.8747C27.4134 28.7926 27.1054 28.6578 26.8336 28.4762C26.5618 28.2769 26.2658 28.0425 25.994 27.7611C25.6497 27.4095 25.3598 27.0461 25.1545 26.6652C24.9491 26.2842 24.8283 25.915 24.7921 25.5164C24.7558 25.1355 24.8283 24.7545 24.9974 24.3677C25.1545 23.9868 25.4263 23.6058 25.8189 23.2366C26.2477 22.8381 26.6584 22.5743 27.0691 22.4395C27.4798 22.3047 27.8724 22.2578 28.2348 22.3047C28.6093 22.3575 28.9536 22.4571 29.2616 22.6388C29.5697 22.8205 29.8415 23.0197 30.0649 23.2542L28.9838 24.8835C28.6576 24.567 28.3496 24.3677 28.0234 24.2681C27.7154 24.1685 27.3892 24.2681 27.0631 24.5846C26.894 24.7487 26.7913 24.9011 26.755 25.0652C26.7188 25.2293 26.7369 25.3816 26.7913 25.5458C26.8457 25.7099 26.9121 25.8798 27.0329 26.0088C27.1356 26.1611 27.2564 26.2901 27.3772 26.4249C27.5342 26.5773 27.6671 26.6886 27.806 26.7882C27.9449 26.8879 28.0959 26.9523 28.2831 26.9699C28.4523 26.9875 28.6757 26.9699 28.9536 26.9172C29.2133 26.8644 29.5515 26.7531 29.9441 26.6007C30.4938 26.3663 30.9709 26.2373 31.3816 26.1846C31.7923 26.1318 32.1668 26.1494 32.493 26.2373C32.8191 26.337 33.1272 26.4893 33.4171 26.7179C33.7372 26.9465 34.0452 27.2102 34.3714 27.5443Z" fill="white" fill-opacity="0.02"/>
<path d="M42.6781 25.5797L35.4363 15.5811L37.0248 14.4852L44.2848 24.5013L42.6781 25.5797Z" fill="white" fill-opacity="0.02"/>
<path d="M49.4362 13.2886L52.6193 19.7179L50.8556 20.5326L45.3955 9.50252L46.99 8.76992L49.9859 11.4131C50.2274 11.63 50.463 11.8644 50.7046 12.0637C50.9462 12.2805 51.1818 12.4974 51.4415 12.7142L52.7763 13.9743C52.7944 13.9567 52.8125 13.9567 52.8125 13.9391C52.8125 13.9391 52.8307 13.9216 52.8488 13.9216L49.6839 7.50984L51.4113 6.71277L56.8714 17.7428L55.3312 18.4578L52.3354 15.8322C51.8582 15.3985 51.375 14.9707 50.916 14.5545C50.4509 14.1208 49.9919 13.7047 49.5147 13.2769L49.4362 13.2886Z" fill="white" fill-opacity="0.02"/>
<path d="M63.6118 2.57533C64.107 2.44053 64.5721 2.41122 64.9647 2.44052C65.3573 2.49327 65.7197 2.59291 66.0277 2.77459C66.3358 2.95628 66.5774 3.19071 66.7827 3.5072C66.9881 3.8061 67.1451 4.15774 67.2478 4.55628L65.5385 5.48815C65.4177 5.05445 65.2486 4.72624 65.007 4.49181C64.7654 4.27496 64.4574 4.21049 64.0829 4.29254C63.8594 4.35701 63.6903 4.44492 63.5876 4.57386C63.4668 4.70866 63.4004 4.8376 63.3641 5.00756C63.3098 5.17166 63.3098 5.34163 63.3279 5.50573C63.346 5.66984 63.3641 5.8398 63.4124 5.98632L65.0372 11.9995C65.0734 12.1167 65.1217 12.2339 65.1761 12.3629C65.2425 12.4977 65.3331 12.6149 65.4358 12.7145C65.5385 12.8142 65.6774 12.8786 65.8284 12.9314C65.9855 12.9665 66.1727 12.9665 66.3781 12.9138C67.0787 12.7321 67.284 12.1519 67.0485 11.1849C67.3746 11.1497 67.7008 11.1204 68.0269 11.0852C68.3531 11.0325 68.6793 11.0032 69.0054 10.968C69.2289 11.8647 69.1745 12.6266 68.8363 13.2772C68.492 13.9277 67.8458 14.3731 66.9035 14.6252C65.8949 14.8772 65.0915 14.8244 64.4694 14.4435C63.8534 14.0801 63.4245 13.412 63.1709 12.4684L61.5642 6.5724C61.4434 6.1387 61.377 5.71086 61.377 5.29474C61.3589 4.87863 61.4314 4.48009 61.5824 4.1343C61.7394 3.78265 61.9749 3.47203 62.3192 3.20243C62.6212 2.92697 63.0682 2.71013 63.6118 2.57533Z" fill="white" fill-opacity="0.02"/>
<path d="M76.9001 12.6418L75.8733 0.445418L81.4542 0L81.6112 1.77582L77.9812 2.05714L78.253 5.38022L81.418 5.13407L81.575 6.94506L78.404 7.19121L78.7 10.7136L82.33 10.4322L82.481 12.1905L76.9001 12.6418Z" fill="white" fill-opacity="0.02"/>
<path d="M104.28 3.7267C104.008 3.67395 103.767 3.74429 103.543 3.96114C103.32 4.16041 103.133 4.57652 102.976 5.1919L101.164 4.55894C101.405 3.54501 101.846 2.81242 102.48 2.38458C103.115 1.9333 103.87 1.80435 104.709 2.00362C105.688 2.22047 106.334 2.63659 106.624 3.2344C106.932 3.8322 106.986 4.5648 106.781 5.42634C106.66 5.95968 106.509 6.40509 106.285 6.80363C106.062 7.18458 105.772 7.58312 105.41 7.99924L101.78 12.1839L104.878 12.8813L104.467 14.6102L99.1765 13.4322L99.551 11.8205C100.306 10.9589 101.055 10.1091 101.81 9.25931C102.547 8.39777 103.284 7.54795 104.039 6.68641C104.28 6.4344 104.449 6.15308 104.552 5.87176C104.673 5.59044 104.757 5.29154 104.842 4.97506C104.86 4.87542 104.878 4.7582 104.896 4.6234C104.914 4.48861 104.896 4.37139 104.86 4.26004C104.824 4.14868 104.757 4.02561 104.673 3.92598C104.588 3.82634 104.449 3.75601 104.28 3.7267Z" fill="white" fill-opacity="0.02"/>
<path d="M117.851 16.7797C117.694 17.1607 117.476 17.4596 117.217 17.7116C116.945 17.9461 116.649 18.1277 116.329 18.2274C116.021 18.3446 115.676 18.3798 115.338 18.3622C114.976 18.327 114.638 18.2449 114.293 18.0984C113.931 17.946 113.623 17.7644 113.369 17.5358C113.097 17.3014 112.904 17.0376 112.771 16.7387C112.632 16.4398 112.566 16.1233 112.566 15.76C112.548 15.4083 112.632 15.0449 112.807 14.6816L115.767 8.01783C115.936 7.65446 116.16 7.33798 116.419 7.08597C116.691 6.83395 116.987 6.66985 117.307 6.55263C117.615 6.453 117.96 6.40025 118.316 6.41783C118.66 6.43542 119.017 6.53505 119.379 6.68157C120.116 6.98047 120.629 7.44348 120.919 8.05886C121.191 8.67425 121.161 9.37168 120.816 10.1336L117.851 16.7797ZM119.071 9.30135C119.155 9.0845 119.174 8.88523 119.089 8.70355C119.004 8.52186 118.847 8.38707 118.642 8.28743C118.419 8.20538 118.213 8.1878 118.008 8.25227C117.803 8.31674 117.664 8.45153 117.561 8.66838L114.547 15.4493C114.444 15.6662 114.444 15.8655 114.529 16.0471C114.613 16.2288 114.789 16.3636 115.006 16.4633C115.211 16.5453 115.417 16.5629 115.604 16.4984C115.791 16.434 115.948 16.2992 116.033 16.0823L119.071 9.30135Z" fill="white" fill-opacity="0.02"/>
<path d="M125.727 24.0113L131.501 15.6069L129.309 15.7886L130.474 14.0948L132.818 13.8956L134.322 14.8743L127.34 25.0545L125.727 24.0113Z" fill="white" fill-opacity="0.02"/>
<path d="M135.766 31.7914L134.377 30.4961L144.101 25.0339L142.802 23.8031L141.86 24.7467L140.628 23.5862L142.814 21.3943L146.807 25.1452L145.659 26.2939L135.766 31.7914Z" fill="white" fill-opacity="0.02"/>
</svg>
