<svg width="24" height="24" viewBox="0 0 24 24" fill="none" xmlns="http://www.w3.org/2000/svg">
<circle cx="12" cy="12" r="10" fill="#AA181A"/>
<path fill-rule="evenodd" clip-rule="evenodd" d="M9.05791 14.939C8.24978 14.9896 7.6519 14.977 6.81755 14.06C6.78811 14.0277 6.75934 13.9946 6.73133 13.9607C6.44457 13.6139 6.23722 13.1873 6.20191 12.6693C6.11284 11.3634 7.11207 10.8515 7.11207 10.8515C7.11207 10.8515 6.47886 12.2514 7.69588 12.2514C8.40298 12.2514 8.04042 11.5108 7.63427 10.6812C7.34139 10.0829 7.02584 9.43835 7.07242 8.99183C7.15597 8.18824 7.7066 7.86247 7.94037 7.72417C7.98308 7.6989 8.01522 7.67988 8.03199 7.66536C8.0637 7.63806 8.04614 7.76575 8.01954 7.95919C7.95452 8.43199 7.83548 9.2976 8.24978 9.25328C8.83359 9.19084 9.84322 7.15344 9.45705 5.72266C9.45705 5.72266 10.9861 6.83503 10.7638 9.62453C10.7638 9.62453 10.5557 10.5022 11.0459 10.3451C11.5361 10.1886 11.4763 9.37337 11.2241 8.6995C11.2241 8.6995 12.9163 9.5614 12.0257 11.6297C12.0257 11.6297 11.4538 12.5229 11.5423 12.9979C11.1805 13.4794 10.9762 13.7121 10.6052 14.0024C10.5378 13.5538 10.5921 12.9785 10.9517 12.2988C10.9517 12.2988 10.338 12.2672 10.0955 12.8841C10.0955 12.8841 10.1741 11.9502 10.1441 11.0706C10.129 10.6263 10.0861 10.1958 9.99145 9.90657C9.99145 9.90657 9.30851 11.2203 9.20419 12.7447C9.1721 13.2136 9.19475 13.7024 9.30882 14.179C9.30882 14.179 8.86349 14.1371 8.81408 13.4111C8.81408 13.4111 8.31401 14.2569 9.05791 14.939Z" fill="white"/>
<path d="M14.104 8.55815C14.3327 8.30599 14.5846 8.07464 14.8546 7.86696C15.215 7.62466 15.5244 7.53729 15.7804 7.53297C15.783 7.48951 15.7879 7.44434 15.7957 7.39764C15.8512 7.06772 15.9361 6.74042 16.048 6.42524C16.0678 6.36991 16.0882 6.31439 16.1087 6.25918C16.1943 6.02902 16.2747 5.81157 16.2888 5.59158C16.3062 5.31556 16.2026 5.0224 16.0116 4.80721C15.9309 4.71604 15.9394 4.57694 16.0312 4.4963C16.123 4.41566 16.2628 4.424 16.3434 4.51488C16.6143 4.81985 16.7554 5.22217 16.7305 5.61811C16.7125 5.90248 16.6167 6.16089 16.5238 6.41088C16.5041 6.46424 16.4843 6.5176 16.4654 6.57069C16.3622 6.86201 16.284 7.16444 16.2324 7.46934C16.2229 7.52605 16.2211 7.57512 16.223 7.61492C16.3337 7.66031 16.4247 7.71831 16.4951 7.77328C16.559 7.829 16.6191 7.88879 16.6754 7.95205C17.0592 8.38512 17.2577 8.98485 17.1878 9.55827C17.0858 9.2428 16.8276 8.98206 16.5123 8.87653C16.4304 8.8489 16.3402 8.83166 16.2575 8.85736C16.1387 8.89429 16.0636 9.01077 16.0179 9.12594C15.9725 9.24132 15.9451 9.36578 15.8748 9.46809C15.8315 9.53105 15.7602 9.58708 15.6849 9.57237C15.6155 9.55876 15.5718 9.49092 15.5453 9.42557C15.4746 9.25083 15.4711 9.05718 15.441 8.87081C15.402 8.62758 15.286 8.30476 14.9814 8.37923C14.9814 8.37923 14.4658 8.44471 13.952 8.93723C13.9534 8.81631 14.0047 8.66749 14.104 8.55815Z" fill="white"/>
<path fill-rule="evenodd" clip-rule="evenodd" d="M6.15771 15.5774C9.2803 21.3189 18.407 16.8799 17.7859 10.4458C17.7962 10.1163 17.7305 9.39113 17.3858 9.12594C17.4203 9.32884 17.4289 9.75815 17.1878 9.85217C16.8863 9.96969 17.0182 9.08114 16.3229 9.08114C16.1853 9.1004 16.1209 9.52311 15.9744 9.65993C15.6849 9.89572 15.283 9.87997 15.1822 8.78466C15.0397 8.2883 14.1708 9.15714 13.909 9.15714C13.6471 9.15714 13.7367 8.77688 13.909 8.4341C13.5814 8.64353 12.6414 9.91435 12.4045 11.4184C11.5719 14.9395 8.05851 16.1284 6.15771 15.5774ZM12.7622 14.4406C12.8357 14.3332 12.9052 14.224 12.9725 14.1149C13.0368 14.0038 13.1018 13.8948 13.1563 13.7816C13.1846 13.7255 13.2128 13.67 13.2407 13.6147C13.2666 13.5584 13.292 13.5026 13.3176 13.4474C13.3701 13.3376 13.4129 13.2259 13.4569 13.1177C13.496 13.0076 13.5377 12.9012 13.5714 12.7954C13.6436 12.5856 13.6977 12.3828 13.7436 12.1952C13.7891 12.0073 13.823 11.8338 13.8478 11.6793C13.875 11.5252 13.8432 11.5394 13.8553 11.428C13.8769 11.2044 13.8769 11.0764 13.8769 11.0764C13.8769 11.0764 13.8707 11.1076 13.8585 11.1663C13.8467 11.2249 13.8247 11.3102 13.7992 11.4184C13.772 11.5263 13.7374 11.6568 13.741 11.6556C13.6989 11.8043 13.6454 11.9703 13.5855 12.15C13.5537 12.2394 13.5223 12.3329 13.4849 12.4279C13.4493 12.5235 13.4113 12.6216 13.3704 12.7218C13.331 12.8224 13.2836 12.9232 13.2387 13.0271C13.1879 13.1284 13.1442 13.2358 13.089 13.3397C12.9867 13.5516 12.862 13.7601 12.7349 13.9704C12.6692 14.0744 12.6009 14.1779 12.5297 14.2796C12.455 14.3788 12.3849 14.482 12.3035 14.5763L12.1868 14.722L12.0627 14.8607C11.9827 14.9555 11.8914 15.0388 11.8054 15.1259C11.763 15.1702 11.7155 15.2083 11.6704 15.2487C11.6254 15.2893 11.5802 15.3296 11.5357 15.3697L11.5345 15.3707C11.4412 15.4449 11.3487 15.5186 11.2558 15.5884C11.159 15.6532 11.065 15.7193 10.9704 15.7804C10.8734 15.837 10.7797 15.8957 10.6857 15.9477L10.6666 15.9573C10.5772 16.0023 10.4899 16.0463 10.4056 16.0887C10.3123 16.1288 10.2222 16.1675 10.1355 16.2047C10.0499 16.2448 9.96178 16.2676 9.88102 16.298C9.79913 16.3253 9.72307 16.3587 9.64804 16.3762C9.57375 16.3968 9.50399 16.4161 9.43934 16.434C9.375 16.4527 9.3157 16.4706 9.2608 16.4804C9.04274 16.5267 8.91701 16.5565 8.91701 16.5565C8.91701 16.5565 9.04461 16.5517 9.26979 16.537C9.38265 16.5308 9.51735 16.5057 9.67353 16.4833C9.75225 16.4743 9.8327 16.4496 9.91958 16.4318C10.0054 16.4101 10.0979 16.3933 10.1898 16.3606C10.2823 16.3303 10.3797 16.3003 10.4798 16.2663C10.5775 16.2256 10.678 16.1835 10.7817 16.1401C10.8836 16.0926 10.9852 16.0376 11.0911 15.9845C11.1953 15.9283 11.2952 15.8601 11.4008 15.7965C11.5021 15.7265 11.603 15.6526 11.7051 15.5774C11.8016 15.4959 11.904 15.4176 11.9965 15.3276C12.0886 15.2371 12.1859 15.15 12.2718 15.0514L12.4045 14.907L12.529 14.7553C12.6132 14.6547 12.6855 14.5458 12.7622 14.4406Z" fill="white"/>
</svg>
