<svg width="351" height="143" viewBox="0 0 351 143" fill="none" xmlns="http://www.w3.org/2000/svg">
<path d="M160.093 25.0462C174.999 24.2619 187.734 35.6745 188.582 50.5751C189.429 65.4757 178.067 78.2566 163.167 79.1646C148.179 80.0781 135.304 68.6371 134.453 53.6485C133.602 38.66 145.098 25.8351 160.093 25.0462ZM161.768 67.1588C178.99 65.7944 178.219 37.6186 161.526 37.0767C143.529 38.317 144.473 66.5493 161.768 67.1588Z" fill="white"/>
<path d="M218.757 25.2605C231.021 24.7938 242.117 30.3427 242.124 44.0082C242.062 53.4671 242.396 62.8648 241.978 72.3172C241.663 79.4225 230.993 80.6456 228.875 74.1476C228.722 73.682 228.801 72.9046 228.506 72.6303C227.066 74.0721 225.632 75.5809 223.75 76.53C218.263 79.2761 211.91 79.7308 206.09 77.7942C200.516 75.9155 198.206 72.8512 195.734 67.8394C194.269 63.2656 194.9 56.4129 197.702 52.4443C203.284 44.5386 216.687 44.0811 224.606 48.4124C226.084 49.2214 227.499 50.5276 228.907 51.5115C227.809 46.5288 230.55 40.2839 223.679 37.4417C220.259 36.0266 213.455 36.1677 210.042 37.5434C205.585 39.3402 205.555 41.4205 200.371 39.1481C198.456 36.8674 198.175 33.3883 200.441 31.3165C204.709 27.4154 213.078 25.4338 218.757 25.2605ZM221.432 69.4596C223.9 69.0286 226.802 67.5621 228.679 65.8637C228.702 63.5368 228.642 61.0519 228.75 58.7502C224.505 55.2774 221.449 54.3686 215.792 54.8649C213.313 55.2303 211.386 55.938 209.817 58.0349C208.68 59.5591 208.193 61.4717 208.466 63.3534C209.343 69.1486 216.03 70.3109 220.863 69.5516L221.432 69.4596Z" fill="white"/>
<path d="M272.191 25.2685C275.285 25.1288 278.381 25.4322 281.388 26.1699C286.375 27.3947 290.022 28.4349 292.78 32.995C292.79 35.4816 292.323 37.5485 289.817 38.8158C286.881 40.3013 284.138 37.9928 281.413 37.0743C276.155 35.303 272.159 34.8646 267.066 37.3018C264.564 40.9009 265.168 42.5895 269.296 44.0346C276.504 46.5575 285.874 46.5343 291.603 52.2135C297 57.5638 296.961 68.3482 290.99 73.3569C285.529 78.095 278.674 79.0627 271.703 78.9062C266.873 78.5508 253.899 76.6516 252.459 70.1642C251.935 67.8003 253.069 65.7946 255.143 64.5187C258.959 61.926 262.888 66.0571 266.456 67.0682C272.143 68.6802 278.347 70.0572 282.563 64.9905C282.701 63.6626 282.933 61.588 281.711 60.6786C278.897 58.6069 275.298 58.2686 271.986 57.4721C266.683 56.1971 260.633 55.2942 256.472 51.4343C251.296 46.6329 251.448 37.3139 255.944 32.124C259.805 27.6692 266.395 25.4355 272.191 25.2685Z" fill="white"/>
<path d="M314.419 12.0156C323.298 12.1866 321.774 20.6408 321.661 26.8989C322.332 26.8068 323.007 26.7574 323.684 26.7513C327.747 26.6985 332.735 26.9261 332.67 32.4098C332.64 34.051 331.959 35.613 330.773 36.7496C328.516 38.8748 324.775 38.2659 321.784 38.1738C321.532 41.3936 321.469 62.275 322.099 64.0472C323.521 68.0495 327.875 66.4868 330.844 67.983C331.9 68.5158 332.646 69.3764 332.992 70.5112C333.427 71.9477 333.447 74.2199 332.731 75.5441C331.806 77.2566 329.991 77.9122 328.238 78.4185C326.042 78.8937 323.79 79.0581 321.55 78.9069C305.83 77.9615 308.393 64.9482 308.181 53.319C308.093 48.5667 308.004 43.2494 308.302 38.5242C308.071 38.5184 307.838 38.5114 307.605 38.5028C305.171 38.4117 302.408 38.2651 300.62 36.3504C298.791 34.3916 299.193 29.8445 301.129 28.0941C302.901 26.4899 306.026 26.7431 308.268 26.8758C307.977 24.2466 307.867 17.6075 309.183 15.3452C310.436 13.1913 312.243 12.6656 314.419 12.0156Z" fill="white"/>
<path d="M111.231 12.0228C120.028 12.9839 118.465 19.99 118.344 26.8576C118.673 26.8268 119.003 26.802 119.333 26.7835C123.331 26.5626 129.195 26.5103 129.203 32.1634C129.213 38.9881 123.433 38.2894 118.526 38.3202C118.163 42.0137 118.019 60.7146 118.851 63.8057C120.047 68.253 124.716 66.3888 127.794 68.1976C128.813 68.7967 129.504 69.6427 129.783 70.8001C130.184 72.4555 129.905 74.7392 128.99 76.1824C128.272 77.3147 126.266 78.1588 124.999 78.4265C120.096 79.6255 112.183 79.0703 108.471 75.2228C104.115 70.7091 104.942 62.1576 104.931 56.2661C104.9 50.2531 104.929 44.2399 105.017 38.2276C102.295 38.5454 98.9923 38.3494 97.1013 36.0864C95.2502 33.8711 95.416 29.9851 97.7285 28.138C99.8181 26.4691 102.529 26.6605 105.02 26.9015C104.91 23.6039 104.357 17.781 105.949 15.0429C107.116 13.0377 109.17 12.5333 111.231 12.0228Z" fill="white"/>
<path d="M241.131 96.7839C242.172 96.7 242.865 96.7729 243.852 97.0563C247.407 98.0765 246 101.291 245.224 103.731C250.59 103.935 255.323 104.224 260.597 105.337C261.984 105.629 262.794 105.821 263.603 107.061C263.637 107.837 262.963 108.43 262.247 108.497C256.346 109.042 250.005 108.253 244.123 108.532C243.952 111.123 243.53 113.721 243.267 116.306C242.95 119.425 241.743 139.262 246.033 138.728C248.728 136.824 247.724 127.816 253.234 128.501C253.722 128.561 254.082 128.593 254.491 128.888C254.847 129.851 253.903 132.217 253.536 133.14C251.412 138.477 246.835 146.108 240.383 140.759C239.415 139.957 237.942 136.381 237.437 135.133C236.955 136.404 235.78 138.061 234.85 139.046C233.421 140.556 231.746 141.374 229.655 141.395C226.778 141.424 225.559 140.215 223.641 138.353C221.935 138.866 222.013 141.055 218.529 141.298C211.73 141.771 210.716 135.26 210.387 129.684C210.305 127.109 210.222 114.47 213.879 113.035C214.956 112.612 217.729 113.984 217.543 116.095C217.164 120.347 214.869 134.172 219.049 136.864C219.592 136.975 219.962 136.866 220.428 136.574C221.14 136.127 221.999 135.269 222.157 134.408C222.426 132.928 221.744 130.871 221.719 129.307C221.661 125.665 222.284 121.587 223.057 118.029C223.403 116.436 223.857 114.21 225.355 113.284C225.948 112.918 226.633 112.837 227.303 113.016C228.043 113.215 229.297 113.744 229.735 114.393C230.982 116.234 225.787 129.16 230.054 136.458C230.331 136.932 230.595 137.19 231.13 137.331C233.168 137.211 236.237 130.668 236.33 128.92C236.544 124.929 236.145 120.072 236.487 115.994C236.696 113.523 236.556 110.957 237.089 108.578C234.345 108.684 223.017 109.304 221.947 106.881C222.329 103.832 235.378 103.595 237.955 103.599C238.426 101.078 238.699 98.0403 241.131 96.7839ZM141.705 96.7741C143.3 96.709 145.538 96.8719 146.676 98.237C146.988 98.7378 146.919 100.585 146.796 101.102C145.22 107.652 144.381 113.593 143.856 120.291C146.011 118.907 148.264 115.838 150.26 114.098C151.126 113.412 152.046 112.524 153.202 112.581C154.841 112.661 155.403 114.166 155.167 115.707C154.523 119.877 150.932 122.48 147.846 124.925C149.44 127.152 154.051 132.651 156.117 134.029C155.473 127.043 155.256 117.112 161.164 111.59C162.291 110.537 163.779 110.686 165.204 110.91C166.927 112.605 170.146 113.352 171.008 115.143C173.092 119.472 170.871 127.992 167.046 130.92C165.54 132.072 162.014 129.878 161.212 130.355L161.232 130.887C161.798 134.995 163.265 137.257 167.544 137.82C167.763 137.723 167.976 137.61 168.178 137.48C172.498 134.731 174.354 131.629 173.728 126.706C173.431 124.386 173.87 121.316 174.302 119.088C175.41 113.743 177.762 108.488 182.794 105.877C197.872 98.0514 210.59 108.724 206.557 125.04C204.923 131.643 201.58 136.964 195.728 140.557C192.959 142.257 187.131 143.09 184.012 142.205C178.693 140.703 178.234 139.571 175.55 135.287C174.837 136.7 173.395 138.341 172.222 139.416C169.479 141.926 166.323 142.169 162.8 142.058C156.443 141.858 152.096 137.742 147.836 133.524C146.579 132.28 145.227 131.226 144.013 129.863C144.282 133.64 144.408 135.328 146.637 138.221C147.171 138.916 146.301 140.404 145.194 140.768C144.439 141.018 143.615 140.956 142.906 140.596C140.806 139.512 139.857 137.066 139.225 134.964C136.607 139.182 130.678 142.948 127.488 136.984C125.08 140.133 121.61 143.133 117.299 140.727C116.138 140.079 115.522 138.574 115.109 137.352C114.128 138.395 112.386 140.488 111.149 141.032C105.903 143.335 102.828 137.419 101.92 133.236C100.322 125.875 100.799 118.313 101.487 110.873C101.737 108.228 102.017 104.144 102.894 101.731C98.9728 101.534 91.1275 102.368 87.4277 100.746C87.1075 100.606 87.0333 100.117 86.999 99.8014C87.9206 97.559 98.0221 96.9429 100.456 96.8376C106.47 96.6019 112.333 97.0964 118.308 97.7331C120.531 97.9697 126.413 97.7908 127.102 100.559C126.995 100.951 126.93 101.198 126.471 101.383C124.037 102.362 111.41 101.079 109.966 102.102C108.659 104.082 107.314 118.866 107.067 121.883C106.881 124.156 107.232 137.85 109.957 137.875C113.933 135.165 113.167 120.71 116.514 116.637C120.025 112.367 122.489 111.791 127.117 115.149C128.532 114.048 130.301 113.642 131.991 114.466C134.266 115.575 132.831 119.007 132.686 120.972C132.518 123.208 130.786 134.629 133.061 135.839C134.504 135.719 135.032 134.104 135.743 133.045C138.583 128.813 137.401 124.94 137.477 120.226C137.636 117.234 137.533 113.542 138.079 110.603C138.812 106.658 138.463 99.3704 141.705 96.7741ZM123.81 117.438C120.228 119.445 118.251 132.679 120.575 136.088C121.005 136.718 121.322 136.978 121.949 137.375C124.75 135.166 125.613 131.928 125.884 128.478C126.088 125.888 126.979 118.019 123.81 117.438ZM195.336 109.053C194.303 108.474 192.094 107.827 190.937 107.975C178.38 108.857 176.258 140.568 190.769 136.014C192.767 135.41 196.221 132.858 197.461 131.248C202.089 125.242 202.782 113.227 195.336 109.053ZM165.283 116.946C162.745 118.344 160.684 123.764 161.744 126.683C161.873 127.036 162.617 127.385 162.974 127.553C164.065 127.541 164.514 126.955 165.258 126.197L165.336 126.116C166.007 123.832 166.871 119.393 165.703 117.162C165.556 117.071 165.446 116.98 165.283 116.946Z" fill="white"/>
<path d="M41.0018 0H46.6825C49.4642 1.26262 53.7452 0.613855 56.6097 1.2753C66.9407 3.66101 79.7354 8.29385 84.305 18.7262C86.5276 23.8002 86.6819 29.8175 81.277 32.5958C81.6329 32.896 83.7212 34.5944 83.8802 34.8805C85.534 37.856 86.0888 41.3318 86.4176 44.6837C87.1794 52.444 86.9444 60.3429 86.8692 68.1319C86.8443 70.7083 86.5756 73.3001 86.0734 75.8201C85.6787 77.7691 84.9937 79.6476 84.0412 81.393C82.8876 82.1526 81.2347 83.2483 79.8762 83.5127C71.2066 85.1998 61.1442 82.8225 52.5015 81.9178C46.8485 81.3261 40.9139 81.4299 35.282 82C27.1299 82.8251 17.6234 85.9159 9.39629 84.7113C7.0666 84.3703 5.22179 82.7749 3.97211 80.8455C0.470691 75.4396 1.03564 69.829 0.568752 63.7593C0.489062 62.7234 0.347089 60.7389 0 59.8519V55.5681C0.605842 54.2408 0.697671 50.4115 0.859536 48.8764C1.5813 42.0309 3.29838 34.987 8.12398 29.9117C6.43188 28.6964 4.12294 26.0817 3.52229 24.159C-0.885149 10.0515 20.4019 3.68637 30.364 1.31599C33.7978 0.498921 37.6286 1.25787 40.9405 0.0233097L41.0018 0ZM16.7807 29.9182C12.922 35.2241 11.2329 41.6204 10.3882 48.0322C9.36857 55.771 7.93758 67.5787 15.0117 73.0343C18.8786 76.0164 23.4715 73.6085 27.4995 72.5969C33.437 71.523 41.1145 69.8153 47.137 70.6264C53.7173 71.2231 60.186 72.4036 66.7939 72.773C71.8719 73.0567 73.3083 72.7122 76.7634 69.1699C79.1477 59.9199 79.9031 43.8459 75.5113 34.7435C74.996 33.6754 73.0947 32.1396 72.1383 31.3987C72.8993 30.7724 73.7365 30.0357 74.5005 29.4409C75.17 27.6983 75.179 25.6119 74.3294 23.9365C71.3666 18.0934 66.4037 15.3973 60.65 13.1615C54.0796 10.6084 48.9511 10.2072 41.978 10.0823C41.5314 10.0743 38.7702 10.1111 38.4674 10.178C30.8402 10.8581 13.481 13.7816 13.2758 24.819C13.2405 26.7162 15.3324 28.7372 16.7807 29.9182Z" fill="white"/>
</svg>
