<svg width="24" height="24" viewBox="0 0 24 24" fill="none" xmlns="http://www.w3.org/2000/svg">
<circle cx="10" cy="10" r="10" transform="matrix(1 0 0 -1 2 22)" fill="#40A458"/>
<path d="M19.5127 8.34863C19.5242 8.99877 19.5089 9.64864 19.4414 10.2959C19.344 11.2306 19.1515 12.1433 18.791 13.0166C18.2806 14.2527 17.4602 15.2414 16.3584 16.0059C15.8045 16.39 15.2128 16.7093 14.6133 17.0156C14.1063 17.2748 13.5933 17.5238 13.1113 17.8281C12.7046 18.0851 12.3254 18.3757 12.0469 18.7725C11.9433 18.9202 11.8652 19.0863 11.7764 19.2441C11.7659 19.263 11.7587 19.2834 11.7393 19.3027C11.7344 19.2367 11.7277 19.1706 11.7246 19.1045C11.6775 18.0646 11.9655 17.1077 12.4658 16.2051C12.8595 15.4951 13.3576 14.861 13.9141 14.2705C14.7381 13.3964 15.6649 12.6399 16.6396 11.9385C16.6636 11.9212 16.688 11.9032 16.7119 11.8857C16.7101 11.8825 16.7078 11.8792 16.7061 11.876C16.6919 11.8812 16.6768 11.8863 16.6631 11.8926C15.5385 12.4001 14.4889 13.0257 13.5576 13.8359C12.6213 14.6503 11.8656 15.603 11.3174 16.7139C11.3096 16.7295 11.2987 16.7443 11.2842 16.7686C11.2374 16.3081 11.2239 16.1227 11.2197 16.0098C11.1654 14.5351 11.6453 13.2768 12.7578 12.2725C13.3037 11.7798 13.9152 11.3802 14.5635 11.0371C15.228 10.6855 15.9026 10.3526 16.5732 10.0127C17.2243 9.68256 17.8715 9.34526 18.4766 8.93555C18.8243 8.70004 19.1564 8.44458 19.459 8.15332C19.4688 8.14405 19.4805 8.13657 19.501 8.12012C19.5052 8.20278 19.5114 8.2757 19.5127 8.34863ZM3.90234 11.1816C4.40352 11.4043 4.93289 11.5102 5.47949 11.543C5.99715 11.574 6.51473 11.544 7.03223 11.5215C7.4564 11.5031 7.88096 11.4906 8.30469 11.5225C8.98444 11.5739 9.62158 11.7548 10.1982 12.1221C10.4975 12.3127 10.7704 12.5358 11.0137 12.793C11.1457 12.9325 11.2678 13.0812 11.3955 13.2246C11.418 13.2499 11.4192 13.2725 11.4053 13.3027C11.1724 13.8098 11.0096 14.3369 10.9424 14.8906C10.9413 14.8999 10.9392 14.9093 10.9355 14.9287C10.915 14.907 10.9002 14.8907 10.8848 14.875C10.6832 14.669 10.4462 14.5116 10.1914 14.3789C9.8254 14.1884 9.436 14.0531 9.04688 13.9189C8.60146 13.7653 8.15453 13.6155 7.72461 13.4219C7.35604 13.2558 7.00397 13.0617 6.67676 12.8242C6.66525 12.8159 6.65262 12.8088 6.63379 12.8076C6.68648 12.868 6.73723 12.9301 6.79199 12.9883C7.04146 13.2539 7.32794 13.4751 7.63477 13.6709C7.98991 13.8975 8.36593 14.0869 8.74219 14.2754C9.14844 14.4789 9.55687 14.6787 9.94434 14.917C10.2665 15.1152 10.5693 15.3392 10.8359 15.6084C10.854 15.6268 10.8708 15.6578 10.8691 15.6816C10.8656 16.0573 10.9155 16.3955 11.0098 16.7217C11.0209 16.7552 11.0287 16.7898 11.042 16.8223C11.0576 16.8605 11.044 16.8762 11.0068 16.8877C10.6602 16.9952 10.3077 17.0783 9.94824 17.127C9.26987 17.2186 8.60251 17.1834 7.9502 16.9746C7.36381 16.787 6.84744 16.4777 6.38672 16.0752C5.98882 15.7274 5.64748 15.3296 5.3457 14.8965C4.80331 14.1179 4.39437 13.2697 4.06152 12.3838C3.90348 11.9634 3.76827 11.5345 3.62305 11.1094C3.61649 11.0901 3.61173 11.0699 3.60352 11.04C3.71073 11.0911 3.80568 11.1387 3.90234 11.1816ZM14.0303 5.70312C14.172 6.51953 14.2074 7.32777 14.1006 8.14062C13.973 9.11146 13.6463 10.013 13.127 10.8467C12.7367 11.4731 12.2602 12.0288 11.7119 12.5381C11.7056 12.5012 11.6989 12.4734 11.6963 12.4453C11.6243 11.6594 11.7043 10.8845 11.8818 10.1172C12.0211 9.51494 12.2168 8.93065 12.4512 8.3584C12.458 8.34196 12.4643 8.32527 12.4629 8.30176C12.4502 8.31452 12.4369 8.32653 12.4248 8.33984C12.0933 8.70669 11.8303 9.11825 11.6172 9.56152C11.322 10.1756 11.1304 10.8228 10.9951 11.4873C10.9904 11.511 10.9844 11.5343 10.9795 11.5576C10.7869 10.8379 10.8511 10.2369 10.9258 9.79492C11.0367 9.13828 11.2911 8.53736 11.6562 7.98047C12.0979 7.30718 12.6601 6.74383 13.29 6.24512C13.5129 6.06869 13.7473 5.90594 13.9766 5.7373C13.9907 5.72683 14.0064 5.71828 14.0303 5.70312ZM8.43945 8.30078C8.56687 8.36375 8.69634 8.42287 8.82129 8.49023C9.17498 8.68088 9.50118 8.90911 9.77734 9.20215C10.0057 9.44452 10.183 9.71858 10.2949 10.0322C10.3702 10.2434 10.454 10.534 10.4219 10.9053C10.4174 10.8941 10.4126 10.8824 10.4082 10.8711C10.2837 10.5559 10.1333 10.254 9.93457 9.97754C9.79103 9.77789 9.6258 9.59801 9.43066 9.44629C9.42351 9.44073 9.41562 9.43589 9.4082 9.43066C9.40954 9.44249 9.41414 9.45046 9.41895 9.45801C9.58419 9.71932 9.7315 9.99004 9.85254 10.2744C10.0068 10.6367 10.1134 11.0111 10.1465 11.4043C10.1476 11.4183 10.1473 11.4325 10.1475 11.4512C9.83309 11.2482 9.54952 11.0166 9.30273 10.7422C8.97447 10.3771 8.73532 9.96182 8.58789 9.49512C8.46444 9.10416 8.41154 8.70246 8.41016 8.28809C8.42314 8.29343 8.43161 8.29687 8.43945 8.30078Z" fill="white"/>
</svg>
